<svg xmlns="http://www.w3.org/2000/svg" xmlns:xlink="http://www.w3.org/1999/xlink" width="220" height="70" viewBox="0 0 220 70">
  <defs>
    <clipPath id="clip-Artboard_1">
      <rect width="220" height="70"/>
    </clipPath>
  </defs>
  <g id="Artboard_1" data-name="Artboard – 1" clip-path="url(#clip-Artboard_1)">
    <path id="Path_1" data-name="Path 1" d="M-35.925-44.775q2.175,0,2.175,9.975a66.5,66.5,0,0,1-.675,9.337,67.53,67.53,0,0,1-1.988,9.3,84.991,84.991,0,0,1-3.113,8.888,75.419,75.419,0,0,1-4.05,8.325A33.41,33.41,0,0,1-34.95-3.9a6.625,6.625,0,0,1,1.162-.412A3.68,3.68,0,0,1-33-4.425q.3.075.3.15,0,.6-2.025,1.95A27.075,27.075,0,0,0-37.425-.3Q-38.85.9-39.975,1.95T-42.3,4.088q-1.2,1.087-2.175,1.838a12.049,12.049,0,0,1-1.95,1.237,3.953,3.953,0,0,1-1.725.487,2.448,2.448,0,0,1-.862-.187,2.454,2.454,0,0,1-.863-.562,1.147,1.147,0,0,1-.375-.825q0-.975,2.213-2.4a11.724,11.724,0,0,0,2.287-1.65q1.95-4.65,3.15-7.95t2.588-7.8a66.551,66.551,0,0,0,2.1-8.85A53.286,53.286,0,0,0-37.2-31.2a45.021,45.021,0,0,0-.45-6.375q-.525.75-2.287,3.825t-4.087,6.9q-2.325,3.825-4.65,7.125Q-62.1-.675-68.475-.6q-2.775,0-4.05-3.488A28.452,28.452,0,0,1-73.8-13.575a121.415,121.415,0,0,1,3.675-27.6q-3.525,4.8-7.312,10.95t-8.1,14.25A101.826,101.826,0,0,0-92.588.6a49.6,49.6,0,0,0-2.737,15v.075Q-95.55,16.8-96,16.8q-.675,0-1.275-1.725a10.237,10.237,0,0,1-.6-3.375q0-5.1,3.6-14.025a147.663,147.663,0,0,1,8.363-17.362q4.763-8.437,8.925-15A94.569,94.569,0,0,1-71.175-43.2q-.375-.075-1.575-.375t-2.325-.563q-1.125-.262-2.85-.638t-3.263-.6q-1.538-.225-3.45-.412t-3.562-.187a15.8,15.8,0,0,0-5.888,1.087,10.7,10.7,0,0,0-4.387,3.075,6.711,6.711,0,0,0-1.65,4.388q0,3,2.925,6.187t9.225,6.038q1.35.6,1.5,1.275,0,.075-.113.15a.614.614,0,0,1-.337.075,3.891,3.891,0,0,1-.863-.112q-.488-.113-1.238-.263A17.42,17.42,0,0,1-98.062-29.4q-3.562-3.975-3.937-7.8a1.738,1.738,0,0,0-.037-.338,1.908,1.908,0,0,1-.037-.375v-1.012q0-9.9,14.25-9.9A74.9,74.9,0,0,1-67.5-45.45a1.842,1.842,0,0,1,1.35,2.025,24.051,24.051,0,0,1-.6,3.675q-3.525,16.5-3.525,25.725a33.519,33.519,0,0,0,.188,3.75,14.281,14.281,0,0,0,.6,2.887,4.367,4.367,0,0,0,1.163,1.912,2.6,2.6,0,0,0,1.8.675q4.875,0,16.05-15.825Q-46.35-26.55-42.9-32.7a78.985,78.985,0,0,0,4.425-8.7Q-37.125-44.775-35.925-44.775Zm23.55,3.525A4.149,4.149,0,0,1-13.8-38.775a10.007,10.007,0,0,0-1.8,2.325q-.975,2.475-2.1,2.775-1.5,0-1.5-2.475,0-1.575,2.325-3.45a6.907,6.907,0,0,1,4.05-1.875Q-12.45-41.475-12.375-41.25ZM-16.65-28.425q-.15.225-1.013,1.875t-1.462,2.85q-.6,1.2-1.65,3.525T-22.65-15.75q-.825,2.1-1.725,5.025t-1.575,5.85a1.951,1.951,0,0,0-.075.6q0,.9.75.9A8.459,8.459,0,0,0-22.837-4.5,7.617,7.617,0,0,1-20.25-5.625q.525,0,.6.3,0,.9-3.825,3.338T-28.725.45Q-30.15.45-30.15-.9a5.082,5.082,0,0,1,.3-1.575q.825-2.325,1.688-4.8T-26.85-11.1q.45-1.35.938-2.775t.712-2.137q.225-.713.413-1.425t.263-1.087a3.816,3.816,0,0,0,.075-.75,1.413,1.413,0,0,0-.112-.562,1.138,1.138,0,0,1-.112-.413,3.569,3.569,0,0,1,.225-.975,23.44,23.44,0,0,1,2.925-6.3,4.541,4.541,0,0,1,3.75-1.575Q-16.8-29.1-16.65-28.425Zm22.2,1.95a37.769,37.769,0,0,0-8.813,7.237Q-7.425-14.7-7.425-13.275q0,2.7,2.325,6.75A21.253,21.253,0,0,0-.975-.975Q.45.225.45.975q0,.45-.675.45-1.5,0-3.45-2.062a29.583,29.583,0,0,1-3.337-4.2Q-8.4-6.975-9.9-9.75l-1.575-2.775Q-14.7-3.6-14.85-1.275q0,.525-1.387,1.688A4,4,0,0,1-18.45,1.575q-.525,0-.525-.675A6.479,6.479,0,0,1-18.6-.525q2.1-5.25,4.05-11.062t4.35-13.425q2.4-7.613,3.6-11.213a4.761,4.761,0,0,0,.3-1.35,1.413,1.413,0,0,0-.112-.562,1.138,1.138,0,0,1-.112-.413,3.569,3.569,0,0,1,.225-.975,26.057,26.057,0,0,1,2.925-6.338A4.372,4.372,0,0,1,.3-47.4q1.05,0,1.125.675-4.5,9.075-7.313,16.275a131.278,131.278,0,0,0-4.988,15.9l3.45-3.075q3.45-3.075,7.2-6.337T4.05-27.675a6.165,6.165,0,0,1,3.075-1.5q.45,0,.45.3Q7.575-28.05,5.55-26.475Zm17.85,4.35a8.184,8.184,0,0,1-1.612,1.612,3.019,3.019,0,0,1-1.538.787.4.4,0,0,1-.45-.45,11.023,11.023,0,0,1,.713-2.1,8.387,8.387,0,0,0,.712-2.475q0-.525-.375-.525-2.625,0-7.763,8.1A69.091,69.091,0,0,0,5.475-1.35,5.115,5.115,0,0,1,4.05-.15,3.336,3.336,0,0,1,2.4.45.737.737,0,0,1,1.725.075,12.947,12.947,0,0,1,2.213-3.6Q2.7-5.25,3.45-5.55q1.65-6.225,2.325-9.3L6.525-18a4.375,4.375,0,0,0,.15-1.2,1.488,1.488,0,0,0-.15-.675,1.331,1.331,0,0,1-.15-.6,2.2,2.2,0,0,1,.15-.825,20.956,20.956,0,0,1,2.438-6.45A4.192,4.192,0,0,1,12.6-29.475q.9,0,1.05.6-.075.225-1.088,2.625t-1.875,4.5q-.862,2.1-1.912,5.325T7.125-10.5a82.507,82.507,0,0,1,7.65-11.737Q19.95-29.1,23.325-29.1q1.8,0,1.8,2.25A8.1,8.1,0,0,1,23.4-22.125Zm19.425-.225q1.425.225,1.425.825t-1.125,1.163A4.61,4.61,0,0,1,41.1-19.8a24.629,24.629,0,0,1-4.575,15Q31.95,1.425,27.45,1.425q-4.35,0-4.35-6.3a20.1,20.1,0,0,1,.3-3.45,46.44,46.44,0,0,1,1.35-5.025,68.3,68.3,0,0,1,2.55-6.675,22.21,22.21,0,0,1,3.863-6.113q2.287-2.512,4.612-2.512H36.3a2.792,2.792,0,0,1,.6-1.8,2,2,0,0,1,1.65-.75q1.05.075,1.875,4.388T42.825-22.35ZM39-20.4a6.1,6.1,0,0,1-1.65-2.662Q36.375-25.35,36-25.35q-2.325,0-5.4,6.863A52.549,52.549,0,0,0,26.775-7.65a18.512,18.512,0,0,0-.3,3.15q0,3.675,2.1,3.675,3,0,6.713-6.113A25.439,25.439,0,0,0,39-20.4Zm42.6-6.825Q72.525-11.175,70.65-1.35a5.2,5.2,0,0,0-.225,1.5q0,1.05.675,1.05A5.075,5.075,0,0,0,72.637.488,5.8,5.8,0,0,1,74.1-.225q.375,0,.375.45,0,.975-1.65,2.025a6.106,6.106,0,0,1-3.3,1.05,1.913,1.913,0,0,1-1.65-.713A4.243,4.243,0,0,1,67.35.15,16.476,16.476,0,0,1,68.1-4.2a43.921,43.921,0,0,1,1.5-4.463q.75-1.837,2.137-4.912T73.35-17.25q2.325-5.475,2.325-6.525,0-.525-.375-.525a2.067,2.067,0,0,0-.825.375,36.1,36.1,0,0,0-8.25,8.475A40.075,40.075,0,0,0,59.775-1.8q-.15.6-1.575,1.388a5.233,5.233,0,0,1-2.4.787q-.9,0-.9-.675V-.45l.075-.15a161.943,161.943,0,0,1,7.05-23.025,4.631,4.631,0,0,0,.375-1.35q0-.375-.225-.375-.375,0-1.125.825A114.283,114.283,0,0,0,52.575-13.5a92.1,92.1,0,0,0-5.137,8.325A28.562,28.562,0,0,1,44.55-.525a3.935,3.935,0,0,1-3,1.8.53.53,0,0,1-.6-.6,3.767,3.767,0,0,1,.338-1.35q.338-.825.75-1.65l.487-.975q1.2-2.925,4.95-14.625a4.761,4.761,0,0,0,.3-1.35,1.413,1.413,0,0,0-.112-.562,1.138,1.138,0,0,1-.112-.413,3.569,3.569,0,0,1,.225-.975,23.44,23.44,0,0,1,2.925-6.3A4.454,4.454,0,0,1,54.375-29.1q.975,0,1.125.675-6.15,12.6-7.35,18,12.525-19.95,18.975-19.95,1.5,0,1.5.975a2.861,2.861,0,0,1-.525,1.5Q61.575-16.875,59.85-8.475a60.954,60.954,0,0,1,7.012-11.288A55.494,55.494,0,0,1,76.8-28.575,5.877,5.877,0,0,1,80.55-29.7q1.5,0,1.5,1.05A3.477,3.477,0,0,1,81.6-27.225ZM96.825-41.25A4.149,4.149,0,0,1,95.4-38.775a10.007,10.007,0,0,0-1.8,2.325q-.975,2.475-2.1,2.775-1.5,0-1.5-2.475,0-1.575,2.325-3.45a6.907,6.907,0,0,1,4.05-1.875Q96.75-41.475,96.825-41.25ZM92.55-28.425q-.15.225-1.012,1.875T90.075-23.7q-.6,1.2-1.65,3.525T86.55-15.75q-.825,2.1-1.725,5.025T83.25-4.875a1.951,1.951,0,0,0-.075.6q0,.9.75.9A8.459,8.459,0,0,0,86.363-4.5,7.617,7.617,0,0,1,88.95-5.625q.525,0,.6.3,0,.9-3.825,3.338T80.475.45Q79.05.45,79.05-.9a5.082,5.082,0,0,1,.3-1.575q.825-2.325,1.688-4.8T82.35-11.1q.45-1.35.938-2.775T84-16.012q.225-.713.412-1.425t.262-1.087a3.815,3.815,0,0,0,.075-.75,1.413,1.413,0,0,0-.113-.562,1.138,1.138,0,0,1-.113-.413,3.569,3.569,0,0,1,.225-.975,23.44,23.44,0,0,1,2.925-6.3,4.541,4.541,0,0,1,3.75-1.575Q92.4-29.1,92.55-28.425Zm18-18.3A216.162,216.162,0,0,0,98.175-13.65l7.275-2.25q.3-.075.487-.112a1.738,1.738,0,0,1,.338-.038.522.522,0,0,1,.225.038.12.12,0,0,1,.075.112q0,.375-1.125,1.05a42.888,42.888,0,0,1-8.025,3.75Q96.6-8.025,95.85-4.875a2.465,2.465,0,0,0-.075.6,1.331,1.331,0,0,0,.075.487.609.609,0,0,0,.262.3.787.787,0,0,0,.412.112,5.408,5.408,0,0,0,2.625-1.2A4.53,4.53,0,0,1,101.475-5.7a.737.737,0,0,1,.675.375q0,.45-.787,1.088a24.244,24.244,0,0,1-2.137,1.5A16.79,16.79,0,0,0,97.2-1.275,6.552,6.552,0,0,1,93.075.45,1.26,1.26,0,0,1,91.65-.975a4.935,4.935,0,0,1,.3-1.5l2.625-7.575L90.45-8.7a3.4,3.4,0,0,1-1.2.225q-1.5,0-1.5-.9a1,1,0,0,1,.113-.45,3.573,3.573,0,0,1,.338-.525q.675-.825,7.275-2.475,1.35-4.275,3.75-12.112t3.45-11.288a2.962,2.962,0,0,0,.113-.45q.038-.225.075-.375l.075-.3a1.026,1.026,0,0,0,.037-.225,1.1,1.1,0,0,0-.075-.412,2.66,2.66,0,0,1-.112-.337,1.233,1.233,0,0,1-.038-.3,2.357,2.357,0,0,1,.038-.375q.038-.225.112-.525.375-1.125.787-2.213t.75-1.912q.337-.825.413-1.05a2.556,2.556,0,0,1,.487-.75,4.21,4.21,0,0,1,.713-.637q.375-.262.825-.525a4.8,4.8,0,0,1,.9-.412q.45-.15.863-.263a2.993,2.993,0,0,1,.787-.112,1.391,1.391,0,0,1,.75.188A.8.8,0,0,1,110.55-46.725Z" transform="translate(106.075 51.825)" fill="#505776"/>
  </g>
</svg>
