<?xml version="1.0" encoding="UTF-8"?>
<svg width="200px" height="60px" viewBox="0 0 200 60" version="1.1" xmlns="http://www.w3.org/2000/svg" xmlns:xlink="http://www.w3.org/1999/xlink">
    <!-- Generator: Sketch 48.2 (47327) - http://www.bohemiancoding.com/sketch -->
    <title>Artboard 3</title>
    <desc>Created with Sketch.</desc>
    <defs>
        <path d="M43.392,13.384 L44.832,13.384 L44.832,57.736 L43.68,57.736 L43.68,14.968 L24.384,42.328 L23.448,42.328 L4.152,14.968 L4.152,57.736 L3,57.736 L3,13.384 L4.44,13.384 L23.952,41.104 L43.392,13.384 Z M55.344,57.736 L54.192,57.736 L54.192,40.6 L55.344,40.6 L55.344,57.736 Z M55.776,34.84 C55.776,35.416 55.344,35.848 54.768,35.848 C54.192,35.848 53.76,35.416 53.76,34.84 C53.76,34.264 54.192,33.832 54.768,33.832 C55.344,33.832 55.776,34.264 55.776,34.84 Z M65.856,57.736 L64.704,57.736 L64.704,1 L65.856,1 L65.856,50.32 L76.368,40.6 L78.024,40.6 L68.736,48.952 L78.312,57.736 L76.584,57.736 L67.872,49.672 L65.856,51.544 L65.856,57.736 Z M86.304,57.736 L85.152,57.736 L85.152,40.6 L86.304,40.6 L86.304,43.336 C86.304,44.488 86.232,46 86.016,47.728 C86.808,42.904 89.328,40.312 93.648,40.168 L93.72,41.464 C88.032,41.464 86.304,46.72 86.304,51.184 L86.304,57.736 Z M161.196,46.144 C161.196,43.336 159.756,41.32 157.02,41.32 C153.42,41.32 150.036,46.72 146.58,58.24 L145.5,57.952 C145.932,56.368 146.076,53.992 146.076,51.184 L146.076,40.6 L147.228,40.6 L147.228,49.24 C147.228,51.688 147.084,53.272 146.868,54.712 C148.308,49.672 150.252,45.784 151.836,43.624 C153.492,41.32 155.22,40.168 157.308,40.168 C160.404,40.168 162.348,42.688 162.348,45.568 L162.348,49.24 C162.348,51.688 162.204,53.272 161.988,54.712 C163.428,49.672 165.372,45.784 166.956,43.624 C168.612,41.32 170.34,40.168 172.428,40.168 C175.524,40.168 177.468,42.688 177.468,45.568 L177.468,57.736 L176.316,57.736 L176.316,46.144 C176.316,43.336 174.876,41.32 172.14,41.32 C168.54,41.32 165.156,46.72 161.7,58.24 L160.62,57.952 C161.052,56.368 161.196,53.992 161.196,51.184 L161.196,46.144 Z M186.652,57.736 L185.5,57.736 L185.5,40.6 L186.652,40.6 L186.652,57.736 Z M187.016,34.84 C187.016,35.416 186.584,35.848 186.008,35.848 C185.432,35.848 185,35.416 185,34.84 C185,34.264 185.432,33.832 186.008,33.832 C186.584,33.832 187.016,34.264 187.016,34.84 Z M197.152,57.736 L196,57.736 L196,1 L197.152,1 L197.152,57.736 Z" id="path-1"></path>
        <circle id="path-2" cx="120" cy="35" r="8"></circle>
        <filter x="-6.2%" y="-6.2%" width="112.5%" height="112.5%" filterUnits="objectBoundingBox" id="filter-3">
            <feGaussianBlur stdDeviation="0.5" in="SourceAlpha" result="shadowBlurInner1"></feGaussianBlur>
            <feOffset dx="0" dy="1" in="shadowBlurInner1" result="shadowOffsetInner1"></feOffset>
            <feComposite in="shadowOffsetInner1" in2="SourceAlpha" operator="arithmetic" k2="-1" k3="1" result="shadowInnerInner1"></feComposite>
            <feColorMatrix values="0 0 0 0 0   0 0 0 0 0   0 0 0 0 0  0 0 0 0.5 0" type="matrix" in="shadowInnerInner1"></feColorMatrix>
        </filter>
        <circle id="path-4" cx="136" cy="20" r="4"></circle>
        <filter x="-12.5%" y="-12.5%" width="125.0%" height="125.0%" filterUnits="objectBoundingBox" id="filter-5">
            <feGaussianBlur stdDeviation="0.5" in="SourceAlpha" result="shadowBlurInner1"></feGaussianBlur>
            <feOffset dx="0" dy="1" in="shadowBlurInner1" result="shadowOffsetInner1"></feOffset>
            <feComposite in="shadowOffsetInner1" in2="SourceAlpha" operator="arithmetic" k2="-1" k3="1" result="shadowInnerInner1"></feComposite>
            <feColorMatrix values="0 0 0 0 0   0 0 0 0 0   0 0 0 0 0  0 0 0 0.592504529 0" type="matrix" in="shadowInnerInner1"></feColorMatrix>
        </filter>
    </defs>
    <g id="Page-1" stroke="none" stroke-width="1" fill="none" fill-rule="evenodd">
        <g id="Artboard-3">
            <g id="MikrOmil">
                <use fill="#455479" fill-rule="evenodd" xlink:href="#path-1"></use>
                <use fill="black" fill-opacity="1" xlink:href="#path-1"></use>
            </g>
            <path d="M120.036,13.308 C107.876508,13.308 98.036,23.1700404 98.036,35.308 C98.036,47.4923007 107.851699,57.308 120.036,57.308 C132.17396,57.308 142.036,47.4674924 142.036,35.308 C142.036,23.1949019 132.149098,13.308 120.036,13.308 Z" id="Path" stroke="#455479"></path>
            <g id="Oval">
                <use fill="#C13D1D" fill-rule="evenodd" xlink:href="#path-2"></use>
                <use fill="black" fill-opacity="1" filter="url(#filter-3)" xlink:href="#path-2"></use>
            </g>
            <g id="Oval-Copy">
                <use fill="#485B89" fill-rule="evenodd" xlink:href="#path-4"></use>
                <use fill="black" fill-opacity="1" filter="url(#filter-5)" xlink:href="#path-4"></use>
            </g>
        </g>
    </g>
</svg>