<?xml version="1.0" encoding="UTF-8" standalone="no"?><!-- Generator: Gravit.io --><svg xmlns="http://www.w3.org/2000/svg" xmlns:xlink="http://www.w3.org/1999/xlink" style="isolation:isolate" viewBox="0 0 93 93" width="93pt" height="93pt"><defs><clipPath id="_clipPath_ULx8LYdlEpRKZdfnqcJMV2qbl9cmjE4n"><rect width="93" height="93"/></clipPath></defs><g clip-path="url(#_clipPath_ULx8LYdlEpRKZdfnqcJMV2qbl9cmjE4n)"><rect width="93" height="93" style="fill:rgb(179,177,177)"/><mask id="_mask_8FMk3I8UK7yD08iAL7K0wMV5zz5h0HWC"><rect x="0" y="0" width="93" height="93" id="Rectangle" fill="white" stroke="none"/></mask><rect x="0" y="0" width="93" height="93" transform="matrix(1,0,0,1,0,0)" id="Rectangle" fill="none"/><rect x="0" y="0" width="93" height="93" transform="matrix(1,0,0,1,0,0)" id="Rectangle" fill="none" mask="url(#_mask_8FMk3I8UK7yD08iAL7K0wMV5zz5h0HWC)" vector-effect="non-scaling-stroke" stroke-width="12" stroke="rgb(136,0,0)" stroke-linejoin="miter" stroke-linecap="square" stroke-miterlimit="2"/><path d=" M 35.66 30.578 L 34.055 30.578 L 34.055 8.656 L 36.278 8.656 L 38.532 22.057 L 38.779 22.057 L 40.878 8.656 L 42.669 8.656 L 43.379 30.578 L 41.342 30.578 L 41.342 14.06 L 41.125 14.06 L 38.995 25.731 L 37.976 25.947 L 35.784 12.392 L 35.66 12.392 L 35.66 30.578 L 35.66 30.578 Z " id="Path" fill="rgb(136,0,0)"/><path d=" M 62.422 66.86 L 62.422 62.753 L 62.422 62.753 Q 62.422 61.487 62.823 60.993 L 62.823 60.993 L 62.823 60.993 Q 63.224 60.499 64.151 60.499 L 64.151 60.499 L 83.603 60.499 L 83.603 60.499 Q 83.973 61.178 84.158 62.275 L 84.158 62.275 L 84.158 62.275 Q 84.344 63.371 84.344 65.192 L 84.344 65.192 L 84.344 65.192 Q 84.344 66.026 83.927 66.551 L 83.927 66.551 L 83.927 66.551 Q 83.51 67.076 82.862 67.076 L 82.862 67.076 L 62.422 66.86 L 62.422 66.86 Z  M 64.367 62.475 L 64.182 64.667 L 64.459 64.945 L 82.09 65.131 L 82.09 65.131 Q 82.244 65.131 82.275 64.853 L 82.275 64.853 L 82.367 62.938 L 82.182 62.661 L 64.367 62.475 L 64.367 62.475 Z  M 84.004 40.265 L 84.004 40.265 Q 84.158 40.265 84.251 41.531 L 84.251 41.531 L 84.251 41.531 Q 84.344 42.796 84.344 44.032 L 84.344 44.032 L 84.344 45.359 L 84.344 45.359 Q 84.344 45.853 83.973 46.162 L 83.973 46.162 L 83.973 46.162 Q 83.603 46.471 83.016 46.502 L 83.016 46.502 L 74.124 46.81 L 72.302 45.421 L 63.101 47.891 L 62.422 47.304 L 62.422 45.483 L 72.024 43.908 L 71.87 42.333 L 62.422 41.685 L 62.422 40.265 L 84.004 40.265 L 84.004 40.265 Z  M 74.185 42.21 L 74.309 44.526 L 74.309 44.526 Q 74.309 44.711 74.494 44.711 L 74.494 44.711 L 82.182 44.711 L 82.645 44.248 L 82.429 42.117 L 74.185 42.21 L 74.185 42.21 Z  M 51.885 8.656 L 52.534 29.961 L 49.94 29.961 L 49.94 8.656 L 51.885 8.656 L 51.885 8.656 Z  M 66.134 29.93 L 65.578 30.578 L 63.756 30.578 L 62.12 20.142 L 61.441 20.667 L 61.441 30.578 L 59.372 30.578 L 58.971 8.965 L 59.773 8.656 L 61.07 8.656 L 61.07 19.093 L 63.262 17.24 L 62.923 9.367 L 65.578 8.656 L 64.93 18.197 L 63.664 19.185 L 66.134 29.93 L 66.134 29.93 Z " id="Compound Path" fill="rgb(0,0,0)"/><path d=" M 49.354 62.422 L 50.96 62.422 L 50.96 84.344 L 48.737 84.344 L 46.483 70.943 L 46.236 70.943 L 44.136 84.344 L 42.345 84.344 L 41.635 62.422 L 43.673 62.422 L 43.673 78.94 L 43.889 78.94 L 46.02 67.269 L 47.039 67.053 L 49.231 80.608 L 49.354 80.608 L 49.354 62.422 L 49.354 62.422 Z " id="Path" fill="rgb(136,0,0)"/><path d=" M 28.448 44.862 L 30.578 44.862 L 30.578 51.099 L 20.575 51.099 L 21.624 52.858 L 19.957 53.661 L 18.537 51.099 L 8.656 51.099 L 8.656 48.814 L 17.24 48.814 L 16.036 46.683 L 17.456 45.911 L 19.216 48.814 L 27.336 48.814 L 28.047 48.351 L 28.448 44.862 L 28.448 44.862 Z  M 8.656 58.277 L 29.961 57.628 L 29.961 60.222 L 8.656 60.222 L 8.656 58.277 L 8.656 58.277 Z " id="Compound Path" fill="rgb(0,0,0)"/></g></svg>