<?xml version="1.0" encoding="UTF-8" standalone="no"?><!-- Generator: Gravit.io --><svg xmlns="http://www.w3.org/2000/svg" xmlns:xlink="http://www.w3.org/1999/xlink" style="isolation:isolate" viewBox="0 0 500 500"><mask id="_mask_dtAimw8iWVFRkyxojR6vp4ePbph3KjRB"><rect x="0" y="0" width="500" height="500" id="Rectangle" fill="white" stroke="none"/></mask><rect x="0" y="0" width="500" height="500" transform="matrix(1,0,0,1,0,0)" id="Rectangle" fill="none"/><rect x="0" y="0" width="500" height="500" transform="matrix(1,0,0,1,0,0)" id="Rectangle" fill="none" mask="url(#_mask_dtAimw8iWVFRkyxojR6vp4ePbph3KjRB)" vector-effect="non-scaling-stroke" stroke-width="48" stroke="rgb(123,0,0)" stroke-linejoin="miter" stroke-linecap="square" stroke-miterlimit="2"/><path d=" M 181.332 164.4 L 172.7 164.4 L 172.7 46.54 L 184.652 46.54 L 196.77 118.584 L 198.098 118.584 L 209.386 46.54 L 219.014 46.54 L 222.832 164.4 L 211.876 164.4 L 211.876 75.59 L 210.714 75.59 L 199.26 138.338 L 193.782 139.5 L 181.996 66.626 L 181.332 66.626 L 181.332 164.4 L 181.332 164.4 Z " id="Path" fill="rgb(123,0,0)"/><path d=" M 335.6 349.07 L 335.6 326.992 L 335.6 326.992 Q 335.6 320.186 337.758 317.53 L 337.758 317.53 L 337.758 317.53 Q 339.916 314.874 344.896 314.874 L 344.896 314.874 L 449.476 314.874 L 449.476 314.874 Q 451.468 318.526 452.464 324.419 L 452.464 324.419 L 452.464 324.419 Q 453.46 330.312 453.46 340.106 L 453.46 340.106 L 453.46 340.106 Q 453.46 344.588 451.219 347.41 L 451.219 347.41 L 451.219 347.41 Q 448.978 350.232 445.492 350.232 L 445.492 350.232 L 335.6 349.07 L 335.6 349.07 Z  M 346.058 325.498 L 345.062 337.284 L 346.556 338.778 L 441.342 339.774 L 441.342 339.774 Q 442.172 339.774 442.338 338.28 L 442.338 338.28 L 442.836 327.988 L 441.84 326.494 L 346.058 325.498 L 346.058 325.498 Z  M 451.634 206.086 L 451.634 206.086 Q 452.464 206.086 452.962 212.892 L 452.962 212.892 L 452.962 212.892 Q 453.46 219.698 453.46 226.338 L 453.46 226.338 L 453.46 233.476 L 453.46 233.476 Q 453.46 236.132 451.468 237.792 L 451.468 237.792 L 451.468 237.792 Q 449.476 239.452 446.322 239.618 L 446.322 239.618 L 398.514 241.278 L 388.72 233.808 L 339.252 247.088 L 335.6 243.934 L 335.6 234.14 L 387.226 225.674 L 386.396 217.208 L 335.6 213.722 L 335.6 206.086 L 451.634 206.086 L 451.634 206.086 Z  M 398.846 216.544 L 399.51 228.994 L 399.51 228.994 Q 399.51 229.99 400.506 229.99 L 400.506 229.99 L 441.84 229.99 L 444.33 227.5 L 443.168 216.046 L 398.846 216.544 L 398.846 216.544 Z  M 268.562 46.54 L 272.048 161.08 L 258.104 161.08 L 258.104 46.54 L 268.562 46.54 L 268.562 46.54 Z  M 345.168 160.914 L 342.18 164.4 L 332.386 164.4 L 323.588 108.292 L 319.936 111.114 L 319.936 164.4 L 308.814 164.4 L 306.656 48.2 L 310.972 46.54 L 317.944 46.54 L 317.944 102.648 L 329.73 92.688 L 327.904 50.358 L 342.18 46.54 L 338.694 97.834 L 331.888 103.146 L 345.168 160.914 L 345.168 160.914 Z " id="Compound Path" fill="rgb(0,0,0)"/><path d=" M 275.736 335.6 L 284.368 335.6 L 284.368 453.46 L 272.416 453.46 L 260.298 381.416 L 258.97 381.416 L 247.682 453.46 L 238.054 453.46 L 234.236 335.6 L 245.192 335.6 L 245.192 424.41 L 246.354 424.41 L 257.808 361.662 L 263.286 360.5 L 275.072 433.374 L 275.736 433.374 L 275.736 335.6 L 275.736 335.6 Z " id="Path" fill="rgb(123,0,0)"/><path d=" M 152.946 251.582 L 164.4 251.582 L 164.4 285.114 L 110.616 285.114 L 116.26 294.576 L 107.296 298.892 L 99.66 285.114 L 46.54 285.114 L 46.54 272.83 L 92.688 272.83 L 86.214 261.376 L 93.85 257.226 L 103.312 272.83 L 146.97 272.83 L 150.788 270.34 L 152.946 251.582 L 152.946 251.582 Z  M 46.54 323.706 L 161.08 320.22 L 161.08 334.164 L 46.54 334.164 L 46.54 323.706 L 46.54 323.706 Z " id="Compound Path" fill="rgb(0,0,0)"/></svg>
