<?xml version="1.0" encoding="UTF-8"?>
<svg width="220px" height="70px" viewBox="0 0 220 70" version="1.1" xmlns="http://www.w3.org/2000/svg" xmlns:xlink="http://www.w3.org/1999/xlink">
    <!-- Generator: Sketch 48.2 (47327) - http://www.bohemiancoding.com/sketch -->
    <title>Artboard 3</title>
    <desc>Created with Sketch.</desc>
    <defs></defs>
    <g id="Page-1" stroke="none" stroke-width="1" fill="none" fill-rule="evenodd">
        <g id="Artboard-3">
            <g id="Group" transform="translate(5.000000, 14.000000)">
                <path d="M209.940256,3.11196485 C210.126256,3.85596485 209.320256,3.79396485 208.824256,4.47596485 C207.026256,7.07996485 201.880256,12.8459649 193.758256,28.7179649 C197.044256,27.7879649 198.904256,27.2299649 199.276256,26.9819649 C200.020256,26.4239649 201.384256,26.2999649 202.066256,27.3539649 C202.810256,28.4079649 205.104256,29.0279649 199.710256,31.6319649 C196.238256,33.3059649 193.696256,33.7399649 190.782256,34.5459649 C184.148256,47.9999649 183.652256,51.7819649 182.970256,53.5799649 C182.288256,55.6259649 180.738256,56.7419649 179.436256,54.9439649 C178.134256,53.2079649 178.630256,49.6119649 180.552256,45.3959649 C181.234256,43.9699649 182.536256,40.7459649 184.272256,36.5919649 C182.598256,37.0259649 181.482256,37.0259649 180.552256,36.5299649 C179.560256,35.8479649 178.568256,32.0039649 180.428256,31.3219649 C182.102256,30.7639649 184.334256,30.8879649 186.876256,30.3919649 C189.852256,23.5719649 193.262256,16.1319649 195.928256,11.8539649 C201.136256,3.35996485 203.740256,-0.236035147 205.228256,0.0119648528 C206.716256,0.321964853 209.940256,2.36796485 209.940256,3.11196485 Z" id="Mikromił" fill="#4A4A4A"></path>
                <path d="M178.700256,25.1219649 C177.708256,25.9279649 174.918256,26.9819649 174.236256,25.4939649 C173.430256,24.0679649 172.810256,21.5259649 173.740256,21.2159649 C174.794256,20.8439649 177.088256,20.2239649 177.398256,20.2239649 C178.452256,20.0379649 179.258256,22.0839649 180.064256,23.0139649 C180.808256,23.9439649 179.692256,24.3159649 178.700256,25.1219649 Z" id="Path" fill="#C32701"></path>
                <path d="M185.644256,35.3519649 C187.814256,34.0499649 188.434256,35.3519649 186.388256,37.2119649 C184.342256,39.0099649 173.120256,47.4419649 170.764256,47.9999649 C168.408256,48.6819649 165.990256,46.5119649 166.300256,42.9779649 C166.610256,39.6299649 169.400256,33.0579649 171.074256,31.0739649 C172.748256,29.0279649 173.182256,29.0279649 173.678256,29.0279649 C174.856256,29.0279649 177.274256,31.6939649 177.088256,32.6859649 C177.026256,33.6779649 176.592256,33.7399649 175.414256,34.4219649 C174.360256,35.2279649 170.268256,43.0399649 172.066256,42.5439649 C173.864256,42.0479649 183.536256,36.6539649 185.644256,35.3519649 Z" id="Path" fill="#4A4A4A"></path>
                <path d="M168.106256,36.3439649 C170.028256,35.4139649 168.664256,38.0799649 166.246256,40.1879649 C163.828256,42.2959649 156.760256,47.3179649 155.272256,47.9379649 C153.908256,48.6199649 150.994256,48.4959649 150.994256,46.2019649 C150.374256,45.3959649 150.188256,44.3419649 150.498256,43.1639649 C150.808256,42.1099649 151.428256,40.0639649 152.110256,38.2659649 L153.226256,34.9799649 C151.242256,37.1499649 145.662256,41.2419649 143.864256,43.0399649 C142.066256,44.8379649 142.066256,45.6439649 140.392256,45.6439649 C138.656256,45.5819649 137.044256,44.3419649 137.106256,42.4199649 C137.106256,41.4899649 137.912256,39.6919649 138.656256,38.1419649 C139.090256,37.2119649 139.586256,36.2819649 140.144256,35.2899649 C137.540256,37.7699649 132.270256,43.1019649 130.782256,44.4659649 C129.294256,45.9539649 129.232256,46.4499649 127.558256,45.4579649 C125.760256,44.4659649 126.070256,41.9239649 125.574256,41.4279649 C125.078256,40.9319649 126.132256,38.7619649 127.372256,37.3359649 C128.550256,35.8479649 134.316256,29.0899649 134.812256,27.9119649 C135.370256,26.7339649 136.052256,25.3699649 136.858256,25.6799649 C137.788256,25.9279649 138.470256,26.0519649 138.904256,26.4859649 C139.586256,26.9199649 139.958256,27.3539649 139.276256,28.6559649 C138.842256,29.3379649 137.850256,31.0739649 136.796256,32.7479649 L134.812256,35.9099649 C136.486256,34.2359649 142.686256,29.2759649 143.244256,28.9659649 C143.926256,28.5319649 144.608256,28.0979649 146.592256,29.2759649 C148.576256,30.4539649 148.576256,31.0739649 148.142256,31.8179649 L146.716256,34.2979649 L145.662256,36.1579649 C149.940256,33.1199649 153.350256,30.8879649 154.280256,30.4539649 C155.210256,30.1439649 158.868256,31.5079649 158.682256,33.4299649 C158.682256,35.1659649 156.636256,39.8779649 155.458256,42.6679649 C155.520256,43.1639649 155.706256,43.2879649 155.954256,43.0399649 C157.256256,41.9859649 166.184256,37.3359649 168.106256,36.3439649 Z" id="Path" fill="#4A4A4A"></path>
                <path d="M120.932256,29.0899649 C121.924256,29.8959649 127.194256,33.5539649 125.830256,38.5759649 C124.466256,43.5979649 118.266256,47.2559649 114.236256,46.3879649 C110.206256,45.5819649 110.144256,40.4979649 111.818256,38.1419649 C113.492256,35.7859649 117.088256,31.1979649 119.320256,30.7019649 L120.002256,30.5159649 C119.816256,30.2059649 119.630256,29.9579649 119.320256,29.7719649 C117.336256,28.1599649 119.940256,28.4079649 120.932256,29.0899649 Z" id="Path" fill="#4A4A4A"></path>
                <path d="M116.902256,40.3739649 C116.778256,41.1179649 119.258256,40.0639649 120.436256,38.3899649 C120.870256,37.8319649 121.118256,36.6539649 121.118256,35.4139649 C119.320256,37.0259649 117.088256,39.7539649 116.902256,40.3739649 Z" id="Path" fill="#FFFFFF"></path>
                <path d="M110.586256,33.8639649 C110.896256,36.7779649 110.834256,38.2039649 109.656256,38.2039649 C108.540256,38.2039649 105.688256,37.2739649 105.998256,35.5999649 C106.184256,33.9259649 105.006256,33.4919649 103.704256,34.1739649 C103.270256,34.4219649 102.154256,34.9179649 100.976256,35.4759649 C99.7362561,37.7079649 98.9302561,39.3199649 98.4342561,40.9939649 C97.0702561,44.3419649 98.5582561,46.0779649 94.2802561,48.3719649 C92.5442561,49.3019649 91.1802561,49.4259649 90.4982561,47.6899649 C88.9482561,43.7839649 95.7062561,33.6779649 96.5122561,31.6939649 C97.3802561,29.6479649 96.9462561,28.7179649 98.3102561,27.6639649 C100.294256,26.2379649 101.100256,25.6179649 102.030256,27.0439649 C102.836256,28.3459649 105.564256,27.1059649 103.456256,31.0119649 C105.936256,29.2759649 108.478256,27.5399649 109.656256,27.5399649 C111.702256,27.5399649 110.276256,31.0739649 110.586256,33.8639649 Z" id="Path" fill="#4A4A4A"></path>
                <path d="M93.6682561,25.6179649 C96.5822561,25.8039649 91.6842561,31.2599649 90.5062561,31.0739649 C89.4522561,31.0739649 84.9262561,33.2439649 80.9582561,35.8479649 C81.3922561,37.3359649 81.7022561,39.1959649 82.4462561,41.2419649 C83.1902561,43.2879649 84.9882561,44.8379649 87.4062561,44.1559649 C88.9562561,43.7219649 91.1262561,42.4199649 92.8002561,41.3659649 C94.4742561,40.3739649 93.7922561,43.2879649 90.8162561,45.8919649 C87.9642561,48.5579649 86.6622561,48.9299649 84.8022561,48.9299649 C81.1442561,48.9299649 77.1142561,42.2959649 77.1142561,39.0099649 C76.5562561,39.5679649 76.0602561,40.1879649 75.3162561,40.6219649 C73.0222561,46.0779649 71.5342561,49.5499649 70.1082561,49.3639649 C68.3722561,49.1779649 67.6282561,44.7759649 68.6202561,42.9779649 C69.6122561,41.2419649 77.9822561,23.5719649 82.1982561,15.3879649 C84.7402561,10.3659649 85.5462561,6.39796485 85.9802561,5.46796485 C86.4142561,4.53796485 87.9022561,3.97996485 90.3202561,5.28196485 C91.2502561,5.77796485 92.0562561,7.20396485 91.6222561,7.88596485 C91.1882561,8.31996485 82.0742561,23.8819649 78.1062561,33.7399649 C83.6242561,29.7099649 90.8162561,25.4319649 93.6682561,25.6179649 Z" id="Path" fill="#4A4A4A"></path>
                <path d="M69.0622561,25.1219649 C68.0702561,25.9279649 65.2802561,26.9819649 64.5982561,25.4939649 C63.7922561,24.0679649 63.1722561,21.5259649 64.1022561,21.2159649 C65.1562561,20.8439649 67.4502561,20.2239649 67.7602561,20.2239649 C68.8142561,20.0379649 69.6202561,22.0839649 70.4262561,23.0139649 C71.1702561,23.9439649 70.0542561,24.3159649 69.0622561,25.1219649 Z" id="Path" fill="#C32701"></path>
                <path d="M76.0062561,35.3519649 C78.1762561,34.0499649 78.7962561,35.3519649 76.7502561,37.2119649 C74.7042561,39.0099649 63.4822561,47.4419649 61.1262561,47.9999649 C58.7702561,48.6819649 56.3522561,46.5119649 56.6622561,42.9779649 C56.9722561,39.6299649 59.7622561,33.0579649 61.4362561,31.0739649 C63.1102561,29.0279649 63.5442561,29.0279649 64.0402561,29.0279649 C65.2182561,29.0279649 67.6362561,31.6939649 67.4502561,32.6859649 C67.3882561,33.6779649 66.9542561,33.7399649 65.7762561,34.4219649 C64.7222561,35.2279649 60.6302561,43.0399649 62.4282561,42.5439649 C64.2262561,42.0479649 73.8982561,36.6539649 76.0062561,35.3519649 Z" id="Path" fill="#4A4A4A"></path>
                <path d="M51.8342561,54.1999649 C50.2842561,54.8819649 48.1762561,53.6419649 48.0522561,52.5879649 C46.2542561,50.6659649 45.3242561,46.1399649 45.3242561,42.9159649 C45.3242561,40.0639649 46.6262561,32.6239649 47.9282561,25.8039649 C48.6722561,21.8359649 49.5402561,17.5579649 50.5322561,12.9079649 C47.0602561,18.6119649 35.2182561,34.7939649 31.9942561,39.4439649 C28.8942561,44.1559649 29.5142561,46.2019649 25.3602561,46.3879649 C24.0582561,46.4499649 22.5082561,45.5199649 22.1982561,41.7379649 C21.8882561,39.2579649 22.8802561,32.1899649 23.8722561,25.9899649 C24.4302561,22.3319649 25.1122561,18.3639649 25.9182561,14.0859649 C21.2062561,20.5339649 10.9762561,39.8159649 8.43425613,43.5979649 C5.95425613,47.3799649 6.32625613,52.7119649 1.36625613,49.9219649 C-0.617743874,48.7439649 -0.617743874,46.8219649 2.54425613,42.1719649 C3.72225613,40.2499649 10.2322561,28.7179649 12.8982561,24.3159649 C15.5642561,19.7279649 25.9182561,6.64596485 27.2822561,5.71596485 C28.5842561,4.66196485 29.5142561,5.09596485 30.8162561,5.77796485 C35.1562561,7.94796485 33.7922561,10.5519649 33.2962561,12.5359649 C32.9862561,13.4659649 32.0562561,19.3559649 31.0642561,24.8119649 C30.5062561,28.0359649 29.9482561,31.6319649 29.3282561,35.5999649 C37.5122561,27.4159649 47.4942561,9.80796485 49.6022561,8.87796485 C51.6482561,7.88596485 55.7402561,9.24996485 56.7322561,14.2719649 C57.4762561,18.7359649 53.0742561,35.3519649 52.0822561,42.7919649 C51.8962561,46.2639649 52.7642561,48.1239649 54.0042561,49.7979649 C54.6862561,50.1079649 53.8182561,53.3939649 51.8342561,54.1999649 Z" id="Path" fill="#4A4A4A"></path>
                <path d="M199.425459,45.9098793 C198.433459,46.7158793 195.643459,47.7698793 194.961459,46.2818793 C194.155459,44.8558793 193.535459,42.3138793 194.465459,42.0038793 C195.519459,41.6318793 197.813459,41.0118793 198.123459,41.0118793 C199.177459,40.8258793 199.983459,42.8718793 200.789459,43.8018793 C201.533459,44.7318793 200.417459,45.1038793 199.425459,45.9098793 Z" id="Path" fill="#C32701"></path>
            </g>
        </g>
    </g>
</svg>