<?xml version="1.0" encoding="UTF-8"?>
<svg width="212px" height="62px" viewBox="0 0 212 62" version="1.1" xmlns="http://www.w3.org/2000/svg" xmlns:xlink="http://www.w3.org/1999/xlink">
    <!-- Generator: Sketch 48.2 (47327) - http://www.bohemiancoding.com/sketch -->
    <title>Artboard</title>
    <desc>Created with Sketch.</desc>
    <defs>
        <path d="M107.283105,33.6247905 C107.283105,35.4865637 107.970636,37.0447635 109.34572,38.2994367 C110.741327,39.5743466 112.331885,40.211792 114.117441,40.211792 C115.841427,40.211792 117.360153,39.5743466 118.673666,38.2994367 C119.946131,37.0650002 120.602878,35.5068003 120.643925,33.6247905 L120.643925,22.6363365 C120.602878,20.7543267 119.946131,19.1961269 118.673666,17.9616903 C117.360153,16.6867804 115.718287,16.049335 113.748018,16.049335 C112.024032,16.049335 110.515568,16.6867804 109.222579,17.9616903 C107.950113,19.2163635 107.303628,20.7138543 107.283105,22.4542074 L107.283105,33.6247905 Z" id="path-1"></path>
        <filter x="-7.5%" y="-4.1%" width="115.0%" height="108.3%" filterUnits="objectBoundingBox" id="filter-2">
            <feGaussianBlur stdDeviation="0.5" in="SourceAlpha" result="shadowBlurInner1"></feGaussianBlur>
            <feOffset dx="1" dy="1" in="shadowBlurInner1" result="shadowOffsetInner1"></feOffset>
            <feComposite in="shadowOffsetInner1" in2="SourceAlpha" operator="arithmetic" k2="-1" k3="1" result="shadowInnerInner1"></feComposite>
            <feColorMatrix values="0 0 0 0 0.671795281   0 0 0 0 0.455766994   0 0 0 0 0  0 0 0 1 0" type="matrix" in="shadowInnerInner1"></feColorMatrix>
        </filter>
        <path d="M107.42963,33.5097707 C107.42963,35.3307056 108.10208,36.8547261 109.447001,38.0818779 C110.811995,39.3288225 112.367664,39.9522854 114.114054,39.9522854 C115.800224,39.9522854 117.285637,39.3288225 118.570337,38.0818779 C119.814891,36.8745189 120.457232,35.3504984 120.497379,33.5097707 L120.497379,22.7623497 C120.457232,20.921622 119.814891,19.3976015 118.570337,18.1902424 C117.285637,16.9432978 115.679785,16.3198349 113.752734,16.3198349 C112.066564,16.3198349 110.591188,16.9432978 109.326561,18.1902424 C108.082007,19.4173942 107.449703,20.8820373 107.42963,22.5842156 L107.42963,33.5097707 Z M102.612026,22.6732827 C102.612026,19.5856104 103.716049,16.9532113 105.924129,14.7760065 C108.132208,12.5988017 110.801936,11.5102156 113.933394,11.5102156 C117.064852,11.5102156 119.744617,12.5988017 121.97277,14.7760065 C124.200922,16.9532113 125.314982,19.5856104 125.314982,22.6732827 L125.314982,33.5988377 C125.314982,36.68651 124.200922,39.318909 121.97277,41.4961139 C119.744617,43.6733187 117.064852,44.7619048 113.933394,44.7619048 C110.801936,44.7619048 108.132208,43.6733187 105.924129,41.4961139 C103.716049,39.318909 102.612026,36.68651 102.612026,33.5988377 L102.612026,22.6732827 Z" id="path-3"></path>
        <filter x="-4.4%" y="-3.0%" width="108.8%" height="106.0%" filterUnits="objectBoundingBox" id="filter-4">
            <feGaussianBlur stdDeviation="0.5" in="SourceAlpha" result="shadowBlurInner1"></feGaussianBlur>
            <feOffset dx="1" dy="1" in="shadowBlurInner1" result="shadowOffsetInner1"></feOffset>
            <feComposite in="shadowOffsetInner1" in2="SourceAlpha" operator="arithmetic" k2="-1" k3="1" result="shadowInnerInner1"></feComposite>
            <feColorMatrix values="0 0 0 0 0.128272653   0 0 0 0 0.14372114   0 0 0 0 0.26086841  0 0 0 0.500622736 0" type="matrix" in="shadowInnerInner1"></feColorMatrix>
        </filter>
        <polygon id="path-5" points="103.107701 47 127.255938 47 125.148237 51.7502413 101 51.7502413"></polygon>
        <filter x="-3.8%" y="-21.1%" width="107.6%" height="142.1%" filterUnits="objectBoundingBox" id="filter-6">
            <feGaussianBlur stdDeviation="0.5" in="SourceAlpha" result="shadowBlurInner1"></feGaussianBlur>
            <feOffset dx="1" dy="1" in="shadowBlurInner1" result="shadowOffsetInner1"></feOffset>
            <feComposite in="shadowOffsetInner1" in2="SourceAlpha" operator="arithmetic" k2="-1" k3="1" result="shadowInnerInner1"></feComposite>
            <feColorMatrix values="0 0 0 0 0.128272653   0 0 0 0 0.14372114   0 0 0 0 0.26086841  0 0 0 0.500622736 0" type="matrix" in="shadowInnerInner1"></feColorMatrix>
        </filter>
        <path d="M1.16923077,6.97632698 C0.389739692,6.18844425 -1.42108547e-14,5.23895879 -1.42108547e-14,4.12784213 C-1.42108547e-14,3.01672546 0.389739692,2.07229046 1.16923077,1.29450879 C1.94872185,0.516727128 2.89230215,0.127842128 4,0.127842128 C5.10769785,0.127842128 6.05127815,0.516727128 6.83076923,1.29450879 C7.61026031,2.07229046 8,3.01672546 8,4.12784213 C8,5.23895879 7.61026031,6.18339379 6.83076923,6.96117546 C6.05127815,7.73895713 5.10769785,8.12784213 4,8.12784213 C2.89230215,8.12784213 1.94872185,7.74400758 1.16923077,6.97632698 Z" id="path-7"></path>
        <filter x="-18.8%" y="-18.8%" width="137.5%" height="137.5%" filterUnits="objectBoundingBox" id="filter-8">
            <feGaussianBlur stdDeviation="1" in="SourceAlpha" result="shadowBlurInner1"></feGaussianBlur>
            <feOffset dx="1" dy="1" in="shadowBlurInner1" result="shadowOffsetInner1"></feOffset>
            <feComposite in="shadowOffsetInner1" in2="SourceAlpha" operator="arithmetic" k2="-1" k3="1" result="shadowInnerInner1"></feComposite>
            <feColorMatrix values="0 0 0 0 0.263791454   0 0 0 0 0.0310275538   0 0 0 0 0.0310275538  0 0 0 0.500622736 0" type="matrix" in="shadowInnerInner1"></feColorMatrix>
        </filter>
        <path d="M0.833149277,44.5757186 L0.833149277,8.08068057 C0.833149277,5.88134525 1.62343063,3.99622896 3.20401705,2.42527516 C4.78460346,0.854321363 6.69115723,0.0688562446 8.92373554,0.0688562446 C11.2353432,0.0688562446 13.1418969,0.834684735 14.643454,2.36636469 C16.2240404,0.834684735 18.1207157,0.0688562446 20.3335367,0.0688562446 C22.7044163,0.0688562446 24.6307271,0.834684735 26.1125269,2.36636469 C27.614084,3.91768157 28.3747298,5.83225279 28.3944871,8.11013581 L28.3944871,42.513852 L23.6527515,44.5757186 L23.6823874,8.22795675 C23.6823874,7.24611063 23.3563963,6.41155394 22.7044044,5.72426165 C22.0524125,5.03696936 21.2818882,4.69332837 20.3928084,4.69332837 C19.4642138,4.69332837 18.6739325,5.03696936 18.0219406,5.72426165 C17.3501914,6.43119086 17.0143218,7.25592923 17.0143218,8.19850151 L17.0143218,8.22795675 L16.984686,42.513852 L12.2429504,44.5757186 L12.2725863,8.22795675 C12.2725863,7.24611063 11.9465952,6.41155394 11.2946033,5.72426165 C10.6426114,5.03696936 9.87208709,4.69332837 8.98300723,4.69332837 C8.07417004,4.69332837 7.28388869,5.03696936 6.61213946,5.72426165 C5.94039024,6.41155394 5.60452066,7.24611063 5.60452066,8.22795675 L5.57488481,42.513852 L0.833149277,44.5757186 Z" id="path-9"></path>
        <filter x="-3.6%" y="-2.2%" width="107.3%" height="104.5%" filterUnits="objectBoundingBox" id="filter-10">
            <feGaussianBlur stdDeviation="0.5" in="SourceAlpha" result="shadowBlurInner1"></feGaussianBlur>
            <feOffset dx="1" dy="1" in="shadowBlurInner1" result="shadowOffsetInner1"></feOffset>
            <feComposite in="shadowOffsetInner1" in2="SourceAlpha" operator="arithmetic" k2="-1" k3="1" result="shadowInnerInner1"></feComposite>
            <feColorMatrix values="0 0 0 0 0.128272653   0 0 0 0 0.14372114   0 0 0 0 0.26086841  0 0 0 0.500622736 0" type="matrix" in="shadowInnerInner1"></feColorMatrix>
        </filter>
        <path d="M53.6932794,48.5027198 L58.5108827,46.4244892 L58.5108827,48.7996099 C58.5108827,51.8872822 57.4068597,54.5196812 55.1987805,56.6968861 C52.9907013,58.8740909 50.3209728,59.962677 47.189515,59.962677 C44.0580572,59.962677 41.3782921,58.8740909 39.1501395,56.6968861 C36.9219868,54.5196812 35.8079272,51.8872822 35.8079272,48.7996099 L35.8079272,28.7892183 L40.6255305,26.7109878 L40.6255305,48.7105429 C40.6656774,50.5512706 41.3080181,52.0752911 42.5525718,53.2826501 C43.8372724,54.5295947 45.4431241,55.1530576 47.3701751,55.1530576 C49.0563447,55.1530576 50.5317209,54.4801135 51.7963481,53.1342051 C53.0609753,51.7882966 53.6932794,50.2444837 53.6932794,48.5027198 Z M35.3880523,21.8141008 C34.624151,21.0419758 34.2422061,20.11148 34.2422061,19.0225856 C34.2422061,17.9336913 34.624151,17.008145 35.3880523,16.2459189 C36.1519535,15.4836929 37.0766623,15.1025856 38.1622062,15.1025856 C39.2477501,15.1025856 40.1724588,15.4836929 40.9363601,16.2459189 C41.7002613,17.008145 42.0822062,17.9336913 42.0822062,19.0225856 C42.0822062,20.11148 41.7002613,21.0370263 40.9363601,21.7992524 C40.1724588,22.5614784 39.2477501,22.9425857 38.1622062,22.9425857 C37.0766623,22.9425857 36.1519535,22.5664279 35.3880523,21.8141008 Z" id="path-11"></path>
        <filter x="-4.1%" y="-2.2%" width="108.2%" height="104.5%" filterUnits="objectBoundingBox" id="filter-12">
            <feGaussianBlur stdDeviation="0.5" in="SourceAlpha" result="shadowBlurInner1"></feGaussianBlur>
            <feOffset dx="1" dy="1" in="shadowBlurInner1" result="shadowOffsetInner1"></feOffset>
            <feComposite in="shadowOffsetInner1" in2="SourceAlpha" operator="arithmetic" k2="-1" k3="1" result="shadowInnerInner1"></feComposite>
            <feColorMatrix values="0 0 0 0 0.128272653   0 0 0 0 0.14372114   0 0 0 0 0.26086841  0 0 0 0.500622736 0" type="matrix" in="shadowInnerInner1"></feColorMatrix>
        </filter>
        <path d="M47.9771699,44.5757186 L47.9771699,2.1307228 L52.7189055,0.0688562446 L52.7189055,24.2221502 L65.8179499,11.5858537 L70.3225987,13.6477203 L61.2540294,22.5726569 C63.6051517,23.0046692 65.5314625,23.9766823 67.0330196,25.4887253 C69.2260833,27.6487868 70.3225987,30.2604583 70.3225987,33.3238182 L70.3225987,42.513852 L65.5808631,44.5757186 L65.5808631,33.4121839 C65.5413485,31.6055871 64.9091234,30.0935667 63.6841689,28.8760775 C62.4592144,27.6585883 60.9379228,27.0400346 59.1202485,27.0203976 C57.3816034,27.0203976 55.8701903,27.6389514 54.5859638,28.8760775 C53.341252,30.0739298 52.7189055,31.5270403 52.7189055,33.2354525 L52.7189055,42.513852 L47.9771699,44.5757186 Z" id="path-13"></path>
        <filter x="-4.5%" y="-2.2%" width="109.0%" height="104.5%" filterUnits="objectBoundingBox" id="filter-14">
            <feGaussianBlur stdDeviation="0.5" in="SourceAlpha" result="shadowBlurInner1"></feGaussianBlur>
            <feOffset dx="1" dy="1" in="shadowBlurInner1" result="shadowOffsetInner1"></feOffset>
            <feComposite in="shadowOffsetInner1" in2="SourceAlpha" operator="arithmetic" k2="-1" k3="1" result="shadowInnerInner1"></feComposite>
            <feColorMatrix values="0 0 0 0 0.128272653   0 0 0 0 0.14372114   0 0 0 0 0.26086841  0 0 0 0.500622736 0" type="matrix" in="shadowInnerInner1"></feColorMatrix>
        </filter>
        <path d="M77.0969055,44.5757186 L77.0969055,22.6610226 C77.0969055,19.5976627 78.1835423,16.9859912 80.3568487,14.8259297 C82.530155,12.6658682 85.1578405,11.5858537 88.239984,11.5858537 C91.3813995,11.5858537 94.0189635,12.6658682 96.1527552,14.8259297 C98.3458188,17.0645389 99.4423342,19.6762104 99.4423342,22.6610226 L99.4423342,22.7788436 L94.7005987,24.8407101 L94.7005987,22.7493883 C94.661084,20.9231545 94.0288589,19.4111342 92.8039044,18.2132819 C91.5394353,16.9761558 90.0477793,16.357602 88.3288915,16.357602 C86.5309745,16.357602 84.9998044,16.9761558 83.7353352,18.2132819 C82.4708661,19.450408 81.838641,20.9329734 81.838641,22.6610226 L81.838641,42.513852 L77.0969055,44.5757186 Z" id="path-15"></path>
        <filter x="-4.5%" y="-3.0%" width="109.0%" height="106.1%" filterUnits="objectBoundingBox" id="filter-16">
            <feGaussianBlur stdDeviation="0.5" in="SourceAlpha" result="shadowBlurInner1"></feGaussianBlur>
            <feOffset dx="1" dy="1" in="shadowBlurInner1" result="shadowOffsetInner1"></feOffset>
            <feComposite in="shadowOffsetInner1" in2="SourceAlpha" operator="arithmetic" k2="-1" k3="1" result="shadowInnerInner1"></feComposite>
            <feColorMatrix values="0 0 0 0 0.128272653   0 0 0 0 0.14372114   0 0 0 0 0.26086841  0 0 0 0.500622736 0" type="matrix" in="shadowInnerInner1"></feColorMatrix>
        </filter>
        <path d="M131.015496,44.5757186 L131.015496,19.597678 C131.015496,17.3983427 131.805778,15.5132264 133.386364,13.9422726 C134.966951,12.3713188 136.873504,11.5858537 139.106083,11.5858537 C141.41769,11.5858537 143.324244,12.3516822 144.825801,13.8833622 C146.406388,12.3516822 148.303063,11.5858537 150.515884,11.5858537 C152.886763,11.5858537 154.813074,12.3516822 156.294874,13.8833622 C157.796431,15.434679 158.557077,17.3492503 158.576834,19.6271333 L158.576834,42.513852 L153.835099,44.5757186 L153.864735,19.7449542 C153.864735,18.7631081 153.538743,17.9285514 152.886752,17.2412591 C152.23476,16.5539668 151.464235,16.2103258 150.575155,16.2103258 C149.646561,16.2103258 148.85628,16.5539668 148.204288,17.2412591 C147.532538,17.9481883 147.196669,18.7729267 147.196669,19.715499 L147.196669,19.7449542 L147.167033,42.513852 L142.425298,44.5757186 L142.454933,19.7449542 C142.454933,18.7631081 142.128942,17.9285514 141.47695,17.2412591 C140.824959,16.5539668 140.054434,16.2103258 139.165354,16.2103258 C138.256517,16.2103258 137.466236,16.5539668 136.794487,17.2412591 C136.122737,17.9285514 135.786868,18.7631081 135.786868,19.7449542 L135.757232,42.513852 L131.015496,44.5757186 Z" id="path-17"></path>
        <filter x="-3.6%" y="-3.0%" width="107.3%" height="106.1%" filterUnits="objectBoundingBox" id="filter-18">
            <feGaussianBlur stdDeviation="0.5" in="SourceAlpha" result="shadowBlurInner1"></feGaussianBlur>
            <feOffset dx="1" dy="1" in="shadowBlurInner1" result="shadowOffsetInner1"></feOffset>
            <feComposite in="shadowOffsetInner1" in2="SourceAlpha" operator="arithmetic" k2="-1" k3="1" result="shadowInnerInner1"></feComposite>
            <feColorMatrix values="0 0 0 0 0.128272653   0 0 0 0 0.14372114   0 0 0 0 0.26086841  0 0 0 0.500622736 0" type="matrix" in="shadowInnerInner1"></feColorMatrix>
        </filter>
        <path d="M183.875627,48.5027198 L188.69323,46.4244892 L188.69323,48.7996099 C188.69323,51.8872822 187.589207,54.5196812 185.381128,56.6968861 C183.173048,58.8740909 180.50332,59.962677 177.371862,59.962677 C174.240404,59.962677 171.560639,58.8740909 169.332487,56.6968861 C167.104334,54.5196812 165.990274,51.8872822 165.990274,48.7996099 L165.990274,28.7892183 L170.807878,26.7109878 L170.807878,48.7105429 C170.848024,50.5512706 171.490365,52.0752911 172.734919,53.2826501 C174.01962,54.5295947 175.625471,55.1530576 177.552522,55.1530576 C179.238692,55.1530576 180.714068,54.4801135 181.978695,53.1342051 C183.243322,51.7882966 183.875627,50.2444837 183.875627,48.5027198 Z M165.570399,21.8123014 C164.806498,21.0403833 164.424553,20.1101371 164.424553,19.0215346 C164.424553,17.9329322 164.806498,17.0076341 165.570399,16.2456124 C166.334301,15.4835907 167.259009,15.1025856 168.344553,15.1025856 C169.430097,15.1025856 170.354806,15.4835907 171.118707,16.2456124 C171.882608,17.0076341 172.264553,17.9329322 172.264553,19.0215346 C172.264553,20.1101371 171.882608,21.0354352 171.118707,21.7974569 C170.354806,22.5594786 169.430097,22.9404837 168.344553,22.9404837 C167.259009,22.9404837 166.334301,22.5644267 165.570399,21.8123014 Z" id="path-19"></path>
        <filter x="-4.1%" y="-2.2%" width="108.2%" height="104.5%" filterUnits="objectBoundingBox" id="filter-20">
            <feGaussianBlur stdDeviation="0.5" in="SourceAlpha" result="shadowBlurInner1"></feGaussianBlur>
            <feOffset dx="1" dy="1" in="shadowBlurInner1" result="shadowOffsetInner1"></feOffset>
            <feComposite in="shadowOffsetInner1" in2="SourceAlpha" operator="arithmetic" k2="-1" k3="1" result="shadowInnerInner1"></feComposite>
            <feColorMatrix values="0 0 0 0 0.128272653   0 0 0 0 0.14372114   0 0 0 0 0.26086841  0 0 0 0.500622736 0" type="matrix" in="shadowInnerInner1"></feColorMatrix>
        </filter>
        <path d="M199.189061,33.2059973 L203.930797,31.1441307 L203.930797,33.5005497 C203.930797,36.5639096 202.84416,39.1755811 200.670854,41.3356426 C198.497548,43.495704 195.869862,44.5757186 192.787718,44.5757186 C189.705575,44.5757186 187.068011,43.495704 184.874947,41.3356426 C182.681884,39.1755811 181.585368,36.5639096 181.585368,33.5005497 L181.585368,30.3193841 L177.317806,28.2575176 L181.585368,24.0159635 L181.585368,2.1307228 L186.327104,0.0688562446 L186.327104,19.3031257 L194.121332,11.5563985 L198.448165,13.6477203 L186.327104,25.6654568 L186.327104,33.4121839 C186.366618,35.2384177 186.998844,36.7504381 188.223798,37.9482904 C189.488267,39.1854165 191.06883,39.8039703 192.965534,39.8039703 C194.625149,39.8039703 196.077291,39.1363249 197.322003,37.8010142 C198.566715,36.4657035 199.189061,34.9340465 199.189061,33.2059973 Z" id="path-21"></path>
        <filter x="-3.8%" y="-2.2%" width="107.5%" height="104.5%" filterUnits="objectBoundingBox" id="filter-22">
            <feGaussianBlur stdDeviation="0.5" in="SourceAlpha" result="shadowBlurInner1"></feGaussianBlur>
            <feOffset dx="1" dy="1" in="shadowBlurInner1" result="shadowOffsetInner1"></feOffset>
            <feComposite in="shadowOffsetInner1" in2="SourceAlpha" operator="arithmetic" k2="-1" k3="1" result="shadowInnerInner1"></feComposite>
            <feColorMatrix values="0 0 0 0 0.128272653   0 0 0 0 0.14372114   0 0 0 0 0.26086841  0 0 0 0.500622736 0" type="matrix" in="shadowInnerInner1"></feColorMatrix>
        </filter>
        <path d="M53.6932794,48.5027198 L58.5108827,46.4244892 L58.5108827,48.7996099 C58.5108827,51.8872822 57.4068597,54.5196812 55.1987805,56.6968861 C52.9907013,58.8740909 50.3209728,59.962677 47.189515,59.962677 C44.0580572,59.962677 41.3782921,58.8740909 39.1501395,56.6968861 C36.9219868,54.5196812 35.8079272,51.8872822 35.8079272,48.7996099 L35.8079272,28.7892183 L40.6255305,26.7109878 L40.6255305,48.7105429 C40.6656774,50.5512706 41.3080181,52.0752911 42.5525718,53.2826501 C43.8372724,54.5295947 45.4431241,55.1530576 47.3701751,55.1530576 C49.0563447,55.1530576 50.5317209,54.4801135 51.7963481,53.1342051 C53.0609753,51.7882966 53.6932794,50.2444837 53.6932794,48.5027198 Z" id="path-23"></path>
        <filter x="-4.4%" y="-3.0%" width="108.8%" height="106.0%" filterUnits="objectBoundingBox" id="filter-24">
            <feGaussianBlur stdDeviation="0.5" in="SourceAlpha" result="shadowBlurInner1"></feGaussianBlur>
            <feOffset dx="1" dy="1" in="shadowBlurInner1" result="shadowOffsetInner1"></feOffset>
            <feComposite in="shadowOffsetInner1" in2="SourceAlpha" operator="arithmetic" k2="-1" k3="1" result="shadowInnerInner1"></feComposite>
            <feColorMatrix values="0 0 0 0 0.128272653   0 0 0 0 0.14372114   0 0 0 0 0.26086841  0 0 0 0.500622736 0" type="matrix" in="shadowInnerInner1"></feColorMatrix>
        </filter>
        <path d="M165.568734,21.8123014 C164.805943,21.0403833 164.424553,20.1101371 164.424553,19.0215346 C164.424553,17.9329322 164.805943,17.0076341 165.568734,16.2456124 C166.331525,15.4835907 167.25489,15.1025856 168.338856,15.1025856 C169.422822,15.1025856 170.346187,15.4835907 171.108978,16.2456124 C171.871769,17.0076341 172.253159,17.9329322 172.253159,19.0215346 C172.253159,20.1101371 171.871769,21.0354352 171.108978,21.7974569 C170.346187,22.5594786 169.422822,22.9404837 168.338856,22.9404837 C167.25489,22.9404837 166.331525,22.5644267 165.568734,21.8123014 Z" id="path-25"></path>
        <filter x="-12.8%" y="-12.8%" width="125.5%" height="125.5%" filterUnits="objectBoundingBox" id="filter-26">
            <feGaussianBlur stdDeviation="0.5" in="SourceAlpha" result="shadowBlurInner1"></feGaussianBlur>
            <feOffset dx="0" dy="1" in="shadowBlurInner1" result="shadowOffsetInner1"></feOffset>
            <feComposite in="shadowOffsetInner1" in2="SourceAlpha" operator="arithmetic" k2="-1" k3="1" result="shadowInnerInner1"></feComposite>
            <feColorMatrix values="0 0 0 0 0   0 0 0 0 0   0 0 0 0 0  0 0 0 0.5 0" type="matrix" in="shadowInnerInner1"></feColorMatrix>
        </filter>
    </defs>
    <g id="Page-1" stroke="none" stroke-width="1" fill="none" fill-rule="evenodd">
        <g id="Artboard">
            <g id="Group-2" transform="translate(4.000000, 1.000000)">
                <g id="oko-białko">
                    <use fill="#FFAD00" fill-rule="evenodd" xlink:href="#path-1"></use>
                    <use fill="black" fill-opacity="1" filter="url(#filter-2)" xlink:href="#path-1"></use>
                </g>
                <g id="oko-obram">
                    <use fill="#455479" fill-rule="evenodd" xlink:href="#path-3"></use>
                    <use fill="black" fill-opacity="1" filter="url(#filter-4)" xlink:href="#path-3"></use>
                </g>
                <g id="_">
                    <use fill="#455479" fill-rule="evenodd" xlink:href="#path-5"></use>
                    <use fill="black" fill-opacity="1" filter="url(#filter-6)" xlink:href="#path-5"></use>
                </g>
                <g id="Group" transform="translate(109.968264, 28.872158)">
                    <g id="tęczówka">
                        <use fill="#B43115" fill-rule="evenodd" xlink:href="#path-7"></use>
                        <use fill="black" fill-opacity="1" filter="url(#filter-8)" xlink:href="#path-7"></use>
                    </g>
                </g>
                <g id="M">
                    <use fill="#455479" fill-rule="evenodd" xlink:href="#path-9"></use>
                    <use fill="black" fill-opacity="1" filter="url(#filter-10)" xlink:href="#path-9"></use>
                </g>
                <g id="i">
                    <use fill="#B43115" fill-rule="evenodd" xlink:href="#path-11"></use>
                    <use fill="black" fill-opacity="1" filter="url(#filter-12)" xlink:href="#path-11"></use>
                </g>
                <g id="k-copy-5">
                    <use fill="#455479" fill-rule="evenodd" xlink:href="#path-13"></use>
                    <use fill="black" fill-opacity="1" filter="url(#filter-14)" xlink:href="#path-13"></use>
                </g>
                <g id="r">
                    <use fill="#455479" fill-rule="evenodd" xlink:href="#path-15"></use>
                    <use fill="black" fill-opacity="1" filter="url(#filter-16)" xlink:href="#path-15"></use>
                </g>
                <g id="m">
                    <use fill="#455479" fill-rule="evenodd" xlink:href="#path-17"></use>
                    <use fill="black" fill-opacity="1" filter="url(#filter-18)" xlink:href="#path-17"></use>
                </g>
                <g id="i">
                    <use fill="#455479" fill-rule="evenodd" xlink:href="#path-19"></use>
                    <use fill="black" fill-opacity="1" filter="url(#filter-20)" xlink:href="#path-19"></use>
                </g>
                <path d="M165.568734,21.8123014 C164.805943,21.0403833 164.424553,20.1101371 164.424553,19.0215346 C164.424553,17.9329322 164.805943,17.0076341 165.568734,16.2456124 C166.331525,15.4835907 167.25489,15.1025856 168.338856,15.1025856 C169.422822,15.1025856 170.346187,15.4835907 171.108978,16.2456124 C171.871769,17.0076341 172.253159,17.9329322 172.253159,19.0215346 C172.253159,20.1101371 171.871769,21.0354352 171.108978,21.7974569 C170.346187,22.5594786 169.422822,22.9404837 168.338856,22.9404837 C167.25489,22.9404837 166.331525,22.5644267 165.568734,21.8123014 Z" id="i-copy-2" fill="#B43115"></path>
                <g id="ł-copy-4">
                    <use fill="#455479" fill-rule="evenodd" xlink:href="#path-21"></use>
                    <use fill="black" fill-opacity="1" filter="url(#filter-22)" xlink:href="#path-21"></use>
                </g>
                <g id="i-copy-5">
                    <use fill="#455479" fill-rule="evenodd" xlink:href="#path-23"></use>
                    <use fill="black" fill-opacity="1" filter="url(#filter-24)" xlink:href="#path-23"></use>
                </g>
                <g id="i-copy-3">
                    <use fill="#B43115" fill-rule="evenodd" xlink:href="#path-25"></use>
                    <use fill="black" fill-opacity="1" filter="url(#filter-26)" xlink:href="#path-25"></use>
                </g>
            </g>
        </g>
    </g>
</svg>