<?xml version="1.0" encoding="UTF-8"?>
<svg width="200px" height="60px" viewBox="0 0 200 60" version="1.1" xmlns="http://www.w3.org/2000/svg" xmlns:xlink="http://www.w3.org/1999/xlink">
    <!-- Generator: Sketch 48.2 (47327) - http://www.bohemiancoding.com/sketch -->
    <title>Artboard 3</title>
    <desc>Created with Sketch.</desc>
    <defs>
        <circle id="path-1" cx="120" cy="35" r="8"></circle>
        <filter x="-6.2%" y="-6.2%" width="112.5%" height="112.5%" filterUnits="objectBoundingBox" id="filter-2">
            <feGaussianBlur stdDeviation="0.5" in="SourceAlpha" result="shadowBlurInner1"></feGaussianBlur>
            <feOffset dx="0" dy="1" in="shadowBlurInner1" result="shadowOffsetInner1"></feOffset>
            <feComposite in="shadowOffsetInner1" in2="SourceAlpha" operator="arithmetic" k2="-1" k3="1" result="shadowInnerInner1"></feComposite>
            <feColorMatrix values="0 0 0 0 0   0 0 0 0 0   0 0 0 0 0  0 0 0 0.5 0" type="matrix" in="shadowInnerInner1"></feColorMatrix>
        </filter>
        <circle id="path-3" cx="136" cy="20" r="4"></circle>
        <filter x="-12.5%" y="-12.5%" width="125.0%" height="125.0%" filterUnits="objectBoundingBox" id="filter-4">
            <feGaussianBlur stdDeviation="0.5" in="SourceAlpha" result="shadowBlurInner1"></feGaussianBlur>
            <feOffset dx="0" dy="1" in="shadowBlurInner1" result="shadowOffsetInner1"></feOffset>
            <feComposite in="shadowOffsetInner1" in2="SourceAlpha" operator="arithmetic" k2="-1" k3="1" result="shadowInnerInner1"></feComposite>
            <feColorMatrix values="0 0 0 0 0   0 0 0 0 0   0 0 0 0 0  0 0 0 0.592504529 0" type="matrix" in="shadowInnerInner1"></feColorMatrix>
        </filter>
    </defs>
    <g id="Page-1" stroke="none" stroke-width="1" fill="none" fill-rule="evenodd">
        <g id="Artboard-3">
            <path d="M43.652051,13.884 L24.0549601,41.828 L24.1247909,41.828 L43.8326646,13.884 L43.652051,13.884 Z M23.8501738,41.828 L4.18050105,13.884 L3.99933543,13.884 L23.7072091,41.828 L23.8501738,41.828 Z M3.652,13.884 L3.5,13.884 L3.5,57.236 L3.652,57.236 L3.652,13.884 Z M44.18,13.884 L44.18,57.236 L44.332,57.236 L44.332,13.884 L44.18,13.884 Z M54.844,57.236 L54.844,41.1 L54.692,41.1 L54.692,57.236 L54.844,57.236 Z M55.276,34.84 C55.276,34.5401424 55.0678576,34.332 54.768,34.332 C54.4681424,34.332 54.26,34.5401424 54.26,34.84 C54.26,35.1398576 54.4681424,35.348 54.768,35.348 C55.0678576,35.348 55.276,35.1398576 55.276,34.84 Z M65.356,57.236 L65.356,1.5 L65.204,1.5 L65.204,57.236 L65.356,57.236 Z M67.951014,49.0638198 L76.7798872,57.236 L77.0272462,57.236 L68.0342878,48.9868201 L67.951014,49.0638198 Z M71.0322008,46.2147773 L76.7201859,41.1 L76.5637377,41.1 L71.0322008,46.2147773 Z M85.652,57.236 L85.152,57.236 L85.652,57.736 L85.652,57.236 Z M85.652,47.6850814 L85.652,46.4538568 C85.6150031,46.8518067 85.5710354,47.256588 85.5198611,47.6659826 L85.652,47.6850814 Z M85.652,41.1 L85.652,40.6 L85.152,41.1 L85.652,41.1 Z M85.804,41.1 L86.304,41.1 L85.804,40.6 L85.804,41.1 Z M86.138873,47.7554517 L86.5093945,47.8090051 C86.813538,45.9564951 87.3724201,44.4669222 88.1902176,43.3369973 C87.1945903,44.4812052 86.5112823,45.990345 86.138873,47.7554517 Z M93.1765378,40.6955585 C93.3364358,40.6825172 93.4991408,40.6732397 93.6646574,40.6677225 L93.1487698,40.195735 L93.1765378,40.6955585 Z M93.1922664,40.9786732 L93.2207698,41.491735 L93.72,40.964 C93.5410416,40.964 93.3651308,40.9689258 93.1922664,40.9786732 Z M85.804,57.236 L85.804,57.736 L86.304,57.236 L85.804,57.236 Z M146.241282,57.6321938 C146.194556,57.7858234 146.147825,57.9405338 146.101087,58.0963261 L146.708831,57.7568825 L146.24128,57.6322021 Z M146.102089,57.5950845 L145.628831,57.4688825 L145.982382,58.0835587 C146.024738,57.9282525 146.064618,57.7654811 146.102089,57.5950845 Z M146.478151,54.6605221 C146.506287,54.2336524 146.528087,53.7815184 146.543894,53.3032828 C146.496616,53.7548301 146.43994,54.1951073 146.373532,54.6378298 L146.478151,54.6605221 Z M146.576,41.1 L146.576,40.6 L146.076,41.1 L146.576,41.1 Z M146.728,41.1 L147.228,41.1 L146.728,40.6 L146.728,41.1 Z M161.663894,53.3032828 C161.616616,53.7548301 161.55994,54.1951073 161.493532,54.6378298 L161.598151,54.6605221 C161.626287,54.2336524 161.648087,53.7815184 161.663894,53.3032828 Z M176.968,57.236 L176.968,57.736 L177.468,57.236 L176.968,57.236 Z M176.816,57.236 L176.316,57.236 L176.816,57.736 L176.816,57.236 Z M161.361282,57.6321938 C161.314556,57.7858234 161.267825,57.9405338 161.221087,58.0963261 L161.828831,57.7568825 L161.36128,57.6322021 Z M161.222089,57.5950845 L160.748831,57.4688825 L161.102382,58.0835587 C161.144738,57.9282525 161.184618,57.7654811 161.222089,57.5950845 Z M186.152,57.236 L186.152,41.1 L186,41.1 L186,57.236 L186.152,57.236 Z M186.516,34.84 C186.516,34.5401424 186.307858,34.332 186.008,34.332 C185.708142,34.332 185.5,34.5401424 185.5,34.84 C185.5,35.1398576 185.708142,35.348 186.008,35.348 C186.307858,35.348 186.516,35.1398576 186.516,34.84 Z M196.652,57.236 L196.652,1.5 L196.5,1.5 L196.5,57.236 L196.652,57.236 Z" id="MikrOmil" stroke="#455479"></path>
            <path d="M120.036,13.308 C107.876508,13.308 98.036,23.1700404 98.036,35.308 C98.036,47.4923007 107.851699,57.308 120.036,57.308 C132.17396,57.308 142.036,47.4674924 142.036,35.308 C142.036,23.1949019 132.149098,13.308 120.036,13.308 Z" id="Path" stroke="#455479"></path>
            <g id="Oval">
                <use fill="#C13D1D" fill-rule="evenodd" xlink:href="#path-1"></use>
                <use fill="black" fill-opacity="1" filter="url(#filter-2)" xlink:href="#path-1"></use>
            </g>
            <g id="Oval-Copy">
                <use fill="#485B89" fill-rule="evenodd" xlink:href="#path-3"></use>
                <use fill="black" fill-opacity="1" filter="url(#filter-4)" xlink:href="#path-3"></use>
            </g>
        </g>
    </g>
</svg>