<?xml version="1.0" encoding="UTF-8" standalone="no"?><!-- Generator: Gravit.io --><svg xmlns="http://www.w3.org/2000/svg" xmlns:xlink="http://www.w3.org/1999/xlink" style="isolation:isolate" viewBox="0 0 186 186"><defs><clipPath id="_clipPath_XZOD2kEWGpRyZJ4g7jXiahmDOqR3ufJs"><rect width="186" height="186"/></clipPath></defs><g clip-path="url(#_clipPath_XZOD2kEWGpRyZJ4g7jXiahmDOqR3ufJs)"><rect width="186" height="186" style="fill:rgb(179,177,177)"/><mask id="_mask_mJybfL38YSY3etka0jehExBLUD5AYH1u"><rect x="0" y="0" width="186" height="186" id="Rectangle" fill="white" stroke="none"/></mask><rect x="0" y="0" width="186" height="186" transform="matrix(1,0,0,1,0,0)" id="Rectangle" fill="none"/><rect x="0" y="0" width="186" height="186" transform="matrix(1,0,0,1,0,0)" id="Rectangle" fill="none" mask="url(#_mask_mJybfL38YSY3etka0jehExBLUD5AYH1u)" vector-effect="non-scaling-stroke" stroke-width="24" stroke="rgb(136,0,0)" stroke-linejoin="miter" stroke-linecap="square" stroke-miterlimit="2"/><path d=" M 64.852 62.273 L 61.64 62.273 L 61.64 18.429 L 66.087 18.429 L 70.594 45.229 L 71.088 45.229 L 75.288 18.429 L 78.869 18.429 L 80.29 62.273 L 76.214 62.273 L 76.214 29.235 L 75.782 29.235 L 71.521 52.578 L 69.483 53.01 L 65.099 25.901 L 64.852 25.901 L 64.852 62.273 L 64.852 62.273 Z " id="Path" fill="rgb(136,0,0)"/><path d=" M 123.727 129.482 L 123.727 121.269 L 123.727 121.269 Q 123.727 118.737 124.53 117.749 L 124.53 117.749 L 124.53 117.749 Q 125.333 116.761 127.185 116.761 L 127.185 116.761 L 166.089 116.761 L 166.089 116.761 Q 166.83 118.12 167.201 120.312 L 167.201 120.312 L 167.201 120.312 Q 167.571 122.504 167.571 126.147 L 167.571 126.147 L 167.571 126.147 Q 167.571 127.815 166.737 128.865 L 166.737 128.865 L 166.737 128.865 Q 165.904 129.914 164.607 129.914 L 164.607 129.914 L 123.727 129.482 L 123.727 129.482 Z  M 127.618 120.713 L 127.247 125.098 L 127.803 125.653 L 163.063 126.024 L 163.063 126.024 Q 163.372 126.024 163.434 125.468 L 163.434 125.468 L 163.619 121.64 L 163.248 121.084 L 127.618 120.713 L 127.618 120.713 Z  M 166.892 76.292 L 166.892 76.292 Q 167.201 76.292 167.386 78.824 L 167.386 78.824 L 167.386 78.824 Q 167.571 81.356 167.571 83.826 L 167.571 83.826 L 167.571 86.481 L 167.571 86.481 Q 167.571 87.469 166.83 88.087 L 166.83 88.087 L 166.83 88.087 Q 166.089 88.704 164.916 88.766 L 164.916 88.766 L 147.131 89.383 L 143.488 86.605 L 125.086 91.545 L 123.727 90.371 L 123.727 86.728 L 142.932 83.579 L 142.623 80.429 L 123.727 79.133 L 123.727 76.292 L 166.892 76.292 L 166.892 76.292 Z  M 147.255 80.182 L 147.502 84.814 L 147.502 84.814 Q 147.502 85.184 147.872 85.184 L 147.872 85.184 L 163.248 85.184 L 164.175 84.258 L 163.742 79.997 L 147.255 80.182 L 147.255 80.182 Z  M 97.301 18.429 L 98.598 61.038 L 93.411 61.038 L 93.411 18.429 L 97.301 18.429 L 97.301 18.429 Z  M 125.798 60.976 L 124.687 62.273 L 121.044 62.273 L 117.771 41.401 L 116.412 42.45 L 116.412 62.273 L 112.275 62.273 L 111.472 19.046 L 113.078 18.429 L 115.671 18.429 L 115.671 39.301 L 120.056 35.596 L 119.376 19.849 L 124.687 18.429 L 123.39 37.51 L 120.858 39.486 L 125.798 60.976 L 125.798 60.976 Z " id="Compound Path" fill="rgb(0,0,0)"/><path d=" M 100.714 123.727 L 103.925 123.727 L 103.925 167.571 L 99.479 167.571 L 94.971 140.771 L 94.477 140.771 L 90.278 167.571 L 86.696 167.571 L 85.276 123.727 L 89.351 123.727 L 89.351 156.765 L 89.784 156.765 L 94.045 133.422 L 96.082 132.99 L 100.467 160.099 L 100.714 160.099 L 100.714 123.727 L 100.714 123.727 Z " id="Path" fill="rgb(136,0,0)"/><path d=" M 58.012 89.497 L 62.273 89.497 L 62.273 101.97 L 42.265 101.97 L 44.365 105.49 L 41.03 107.096 L 38.19 101.97 L 18.429 101.97 L 18.429 97.401 L 35.596 97.401 L 33.188 93.14 L 36.028 91.596 L 39.548 97.401 L 55.789 97.401 L 57.209 96.474 L 58.012 89.497 L 58.012 89.497 Z  M 18.429 116.327 L 61.038 115.03 L 61.038 120.217 L 18.429 120.217 L 18.429 116.327 L 18.429 116.327 Z " id="Compound Path" fill="rgb(0,0,0)"/></g></svg>
