<?xml version="1.0" encoding="UTF-8"?>
<svg width="220px" height="70px" viewBox="0 0 220 70" version="1.1" xmlns="http://www.w3.org/2000/svg" xmlns:xlink="http://www.w3.org/1999/xlink">
    <!-- Generator: Sketch 48.2 (47327) - http://www.bohemiancoding.com/sketch -->
    <title>Artboard 2</title>
    <desc>Created with Sketch.</desc>
    <defs>
        <path d="M68.4444444,5.19657143 C69.9447459,5.19657143 70.6948854,8.64187031 70.6948854,15.5325714 C70.6948854,18.6929682 70.4620835,21.9180788 69.9964727,25.208 C69.5308619,28.4979212 68.8453896,31.7100796 67.9400353,34.8445714 C67.034681,37.9790633 65.9612055,41.0487469 64.7195767,44.0537143 C63.4779479,47.0586817 62.0811365,49.9340815 60.5291005,52.68 C63.3744998,50.4521793 66.3491908,48.7424821 69.4532628,47.5508571 C69.9188736,47.343618 70.3198102,47.2011432 70.6560847,47.1234286 C70.9923591,47.0457139 71.2639613,47.0068571 71.4708995,47.0068571 C71.6778376,47.0586669 71.7813051,47.1104759 71.7813051,47.1622857 C71.7813051,47.576764 71.0828994,48.2502811 69.686067,49.1828571 C68.80658,49.7527648 67.8753723,50.4521863 66.8924162,51.2811429 C65.9094601,52.1100994 65.0299862,52.8872345 64.2539683,53.6125714 C63.4779503,54.3379084 62.676077,55.0761867 61.8483245,55.8274286 C61.020572,56.5786704 60.2704325,57.2133307 59.5978836,57.7314286 C58.9253347,58.2495264 58.2527958,58.6769507 57.5802469,59.0137143 C56.907698,59.3504779 56.3127598,59.5188571 55.7954145,59.5188571 C55.5367418,59.5188571 55.2392727,59.4540959 54.9029982,59.3245714 C54.5667238,59.195047 54.2692547,59.0007632 54.010582,58.7417143 C53.7519093,58.4826654 53.622575,58.1977158 53.622575,57.8868571 C53.622575,57.21333 54.3856479,56.3843859 55.9118166,55.4 C57.4379853,54.4156141 58.2269251,53.8457151 58.2786596,53.6902857 C59.6237575,50.4780792 60.7101663,47.7322019 61.5379189,45.4525714 C62.3656714,43.172941 63.2580787,40.4788727 64.2151675,37.3702857 C65.1722564,34.2616987 65.896529,31.2049674 66.3880071,28.2 C66.8794851,25.1950326 67.1252205,22.2160148 67.1252205,19.2628571 C67.1252205,17.0350365 66.9700192,14.8331537 66.659612,12.6571429 C66.2974703,13.1752407 65.5085305,14.4963703 64.292769,16.6205714 C63.0770074,18.7447725 61.6672626,21.1279868 60.0634921,23.7702857 C58.4597216,26.4125846 56.8559751,28.8735124 55.2522046,31.1531429 C45.9917232,44.3128277 39.1628674,50.9184759 34.7654321,50.9702857 C32.8512544,50.9702857 31.454443,49.7657263 30.5749559,47.3565714 C29.6954689,44.9474165 29.2557319,41.6704969 29.2557319,37.5257143 C29.2557319,29.1843392 30.523209,19.6514822 33.0582011,8.92685714 C30.626678,12.2426832 28.1046574,16.0247407 25.4920635,20.2731429 C22.8794696,24.5215451 20.0858467,29.4434006 17.1111111,35.0388571 C14.1363755,40.6343137 11.7048889,46.3592088 9.81657848,52.2137143 C7.92826804,58.0682197 6.98412698,63.2491203 6.98412698,67.7565714 L6.98412698,67.8342857 C6.82892339,68.6114325 6.59612148,69 6.28571429,69 C5.82010349,69 5.38036656,68.4041964 4.9664903,67.2125714 C4.55261404,66.0209464 4.34567901,64.8552438 4.34567901,63.7154286 C4.34567901,60.1923633 5.58728917,55.3482213 8.07054674,49.1828571 C10.5538043,43.017493 13.4379612,37.0206006 16.7231041,31.192 C20.0082469,25.3633994 23.0864054,20.1824989 25.957672,15.6491429 C28.8289385,11.1157869 30.8336216,8.17562578 31.9717813,6.82857143 C31.7131086,6.77676165 31.1699042,6.64723913 30.3421517,6.44 C29.5143992,6.23276087 28.7125259,6.0384771 27.9365079,5.85714286 C27.1604899,5.67580862 26.1775486,5.45562034 24.9876543,5.19657143 C23.7977601,4.93752251 22.6725509,4.73028649 21.6119929,4.57485714 C20.551435,4.41942779 19.3615586,4.27695303 18.042328,4.14742857 C16.7230975,4.01790411 15.4944207,3.95314286 14.356261,3.95314286 C12.1834107,3.95314286 10.1528607,4.32875815 8.26455026,5.08 C6.37623982,5.83124185 4.86302744,6.89332647 3.72486772,8.26628571 C2.58670801,9.63924496 2.01763668,11.1546584 2.01763668,12.8125714 C2.01763668,14.8849627 3.02644494,17.0220842 5.04409171,19.224 C7.06173848,21.4259158 10.2433645,23.5112283 14.5890653,25.48 C15.5202868,25.8944783 16.0376244,26.3348548 16.1410935,26.8011429 C16.1410935,26.8529526 16.1022932,26.9047616 16.0246914,26.9565714 C15.9470896,27.0083812 15.8306886,27.0342857 15.675485,27.0342857 C15.4168123,27.0342857 15.1193432,26.995429 14.7830688,26.9177143 C14.4467943,26.8399996 14.0199908,26.7493339 13.5026455,26.6457143 C9.72602462,25.7131382 6.60906578,23.8739185 4.15167549,21.128 C1.69428519,18.3820815 0.336274074,15.6880132 0.0776014109,13.0457143 C0.0776014109,12.9420947 0.0646679718,12.8255245 0.0388007055,12.696 C0.0129334392,12.5664755 0,12.436953 0,12.3074286 L0,11.2582857 C0,4.41939438 4.91470688,1 14.7442681,1 C20.6937393,1 27.7036634,2.16570263 35.7742504,4.49714286 C36.705472,4.75619177 37.1710758,5.45561335 37.1710758,6.59542857 C37.1710758,7.16533618 36.9641408,8.43465682 36.5502646,10.4034286 C34.1187415,21.8015808 32.9029982,30.6868253 32.9029982,37.0594286 C32.9029982,38.5101025 32.9676654,39.8053276 33.0970018,40.9451429 C33.2263381,42.0849581 33.4332731,43.0822814 33.7178131,43.9371429 C34.002353,44.7920043 34.4032896,45.4525691 34.9206349,45.9188571 C35.4379802,46.3851452 36.0587853,46.6182857 36.7830688,46.6182857 C40.1458134,46.6182857 45.6813254,41.1524356 53.3897707,30.2205714 C56.23517,26.1275986 58.8477247,21.9569736 61.2275132,17.7085714 C63.6073017,13.4601692 65.1334475,10.4552469 65.8059965,8.69371429 C66.7372181,6.36227406 67.6166919,5.19657143 68.4444444,5.19657143 Z M92.8112875,8.84914286 C92.8112875,9.52267003 92.3198168,10.3775186 91.3368607,11.4137143 C90.3539046,12.4499099 89.7330995,13.2529495 89.4744268,13.8228571 C88.8018779,15.53258 88.0776053,16.4910466 87.3015873,16.6982857 C86.2668966,16.6982857 85.7495591,15.8434371 85.7495591,14.1337143 C85.7495591,13.0457088 86.5514323,11.8541017 88.1552028,10.5588571 C89.7589733,9.26361257 91.1557848,8.616 92.345679,8.616 C92.6043517,8.616 92.7595529,8.69371351 92.8112875,8.84914286 Z M88.3880071,22.1382857 C88.284538,22.2937151 87.9353351,22.9413276 87.340388,24.0811429 C86.7454409,25.2209581 86.2410368,26.2053292 85.8271605,27.0342857 C85.4132842,27.8632422 84.8442129,29.0807539 84.1199295,30.6868571 C83.395646,32.2929604 82.748974,33.8213261 82.1798942,35.272 C81.6108143,36.7226739 81.0158761,38.4582756 80.3950617,40.4788571 C79.7742473,42.4994387 79.2310429,44.5199899 78.7654321,46.5405714 C78.7136976,46.6960008 78.6878307,46.9032368 78.6878307,47.1622857 C78.6878307,47.7840031 78.9464995,48.0948571 79.4638448,48.0948571 C79.774252,48.0948571 80.6149255,47.7062896 81.9858907,46.9291429 C83.3568558,46.1519961 84.2492631,45.7634286 84.6631393,45.7634286 C85.0252811,45.7634286 85.2322161,45.8670466 85.2839506,46.0742857 C85.2839506,46.6960031 83.9647398,47.8487535 81.3262787,49.5325714 C78.6878175,51.2163894 76.877136,52.0582857 75.8941799,52.0582857 C74.9112238,52.0582857 74.4197531,51.5920047 74.4197531,50.6594286 C74.4197531,50.1931405 74.5232206,49.649146 74.7301587,49.0274286 C75.2992386,47.4213253 75.8812434,45.7634371 76.4761905,44.0537143 C77.0711376,42.3439915 77.523808,41.0228618 77.8342152,40.0902857 C78.1446224,39.1577096 78.4679583,38.199243 78.8042328,37.2148571 C79.1405073,36.2304713 79.3862426,35.4921929 79.5414462,35 C79.6966498,34.5078071 79.8389176,34.0156215 79.968254,33.5234286 C80.0975903,33.0312356 80.1881244,32.6556203 80.2398589,32.3965714 C80.2915934,32.1375225 80.3174603,31.8784775 80.3174603,31.6194286 C80.3174603,31.4121894 80.27866,31.2179057 80.2010582,31.0365714 C80.1234564,30.8552372 80.0846561,30.7127624 80.0846561,30.6091429 C80.0846561,30.4019037 80.1622567,30.0651452 80.3174603,29.5988571 C81.45562,26.3348408 82.4644283,24.1588626 83.3439153,23.0708571 C84.2234024,21.9828517 85.5167463,21.4388571 87.2239859,21.4388571 C87.8965348,21.4388571 88.284538,21.6719977 88.3880071,22.1382857 Z M111.358025,24.1588571 C108.150484,26.0240093 105.111125,28.5237939 102.239859,31.6582857 C99.3685923,34.7927776 97.9329806,36.8521856 97.9329806,37.8365714 C97.9329806,39.7017236 98.7348538,42.0331289 100.338624,44.8308571 C101.942395,47.6285854 103.365073,49.5455186 104.606702,50.5817143 C105.589658,51.4106708 106.081129,52.0841879 106.081129,52.6022857 C106.081129,52.9131444 105.848327,53.0685714 105.382716,53.0685714 C104.348025,53.0685714 103.158149,52.3561976 101.813051,50.9314286 C100.467953,49.5066595 99.3168772,48.0560074 98.3597884,46.5794286 C97.4026995,45.1028498 96.4068247,43.4061048 95.372134,41.4891429 L93.7425044,38.6137143 C91.5179195,44.7790784 90.35391,48.6647539 90.2504409,50.2708571 C90.2504409,50.6335256 89.7719037,51.2163769 88.8148148,52.0194286 C87.857726,52.8224802 87.0946531,53.224 86.5255732,53.224 C86.1634315,53.224 85.9823633,52.9908595 85.9823633,52.5245714 C85.9823633,52.3173323 86.1116977,51.8251467 86.3703704,51.048 C87.8189373,47.4213152 89.2157487,43.600401 90.5608466,39.5851429 C91.9059444,35.5698847 93.4062234,30.9329787 95.0617284,25.6742857 C96.7172334,20.4155928 97.9588436,16.5428696 98.7865961,14.056 C98.9935343,13.4342826 99.0970018,12.9680016 99.0970018,12.6571429 C99.0970018,12.4499037 99.0582014,12.25562 98.9805996,12.0742857 C98.9029978,11.8929515 98.8641975,11.7504767 98.8641975,11.6468571 C98.8641975,11.439618 98.9417982,11.1028595 99.0970018,10.6365714 C100.286896,7.32074533 101.295704,5.13181483 102.123457,4.06971429 C102.951209,3.00761374 104.218686,2.47657143 105.925926,2.47657143 C106.650209,2.47657143 107.038213,2.70971195 107.089947,3.176 C103.985875,9.44498373 101.463854,15.0662608 99.5238095,20.04 C97.5837646,25.0137392 95.8636171,30.5054938 94.3633157,36.5154286 L97.9329806,33.3291429 C100.312769,31.2049418 102.795989,29.0160113 105.382716,26.7622857 C107.969443,24.5085602 109.443855,23.2262873 109.805996,22.9154286 C111.202829,21.8792329 112.263371,21.3611429 112.987654,21.3611429 C113.298062,21.3611429 113.453263,21.4647609 113.453263,21.672 C113.453263,22.2419076 112.754857,23.0708517 111.358025,24.1588571 Z M129.82716,28.6662857 C129.413284,29.2361933 128.857146,29.7931401 128.15873,30.3371429 C127.460314,30.8811456 126.930043,31.1531429 126.567901,31.1531429 C126.257494,31.1531429 126.102293,30.9977158 126.102293,30.6868571 C126.102293,30.479618 126.348028,29.7542919 126.839506,28.5108571 C127.330984,27.2674224 127.57672,26.4125738 127.57672,25.9462857 C127.57672,25.5836172 127.447385,25.4022857 127.188713,25.4022857 C125.378004,25.4022857 122.700782,28.199972 119.156966,33.7954286 C115.613151,39.3908851 112.987663,44.8567352 111.280423,50.1931429 C110.970016,50.6076211 110.478545,51.0220932 109.805996,51.4365714 C109.133448,51.8510497 108.564376,52.0582857 108.098765,52.0582857 C107.788358,52.0582857 107.555556,51.9287632 107.400353,51.6697143 C107.400353,50.2708501 107.568487,49.0015295 107.904762,47.8617143 C108.241036,46.7218991 108.66784,46.048382 109.185185,45.8411429 C110.323345,41.5409309 111.125218,38.3287725 111.590829,36.2045714 L112.366843,32.9405714 C112.470312,32.5779029 112.522046,32.1634309 112.522046,31.6971429 C112.522046,31.4380939 112.470312,31.2049534 112.366843,30.9977143 C112.263374,30.7904752 112.21164,30.5832391 112.21164,30.376 C112.21164,30.0651413 112.263374,29.7801918 112.366843,29.5211429 C113.194596,26.2571265 114.035269,24.0293393 114.888889,22.8377143 C115.742509,21.6460893 116.997052,21.0502857 118.652557,21.0502857 C119.273372,21.0502857 119.635508,21.2575217 119.738977,21.672 C119.687243,21.8274293 119.312173,22.7340869 118.613757,24.392 C117.91534,26.0499131 117.268668,27.6041832 116.673721,29.0548571 C116.078774,30.5055311 115.419169,32.3447508 114.694885,34.5725714 C113.970602,36.8003921 113.401531,38.8468478 112.987654,40.712 C114.694894,37.3443641 117.333315,33.2903094 120.902998,28.5497143 C124.472681,23.8091192 127.421505,21.4388571 129.749559,21.4388571 C130.991188,21.4388571 131.611993,22.2159922 131.611993,23.7702857 C131.611993,25.376389 131.017055,27.0083727 129.82716,28.6662857 Z M149.925926,28.4331429 C150.908882,28.5885722 151.400353,28.8735217 151.400353,29.288 C151.400353,29.7024783 151.01235,30.1039981 150.236332,30.4925714 C149.460314,30.8811448 148.761908,31.0754286 148.141093,31.0754286 C148.141093,37.1371732 146.563214,42.3180737 143.407407,46.6182857 C140.251601,50.9184977 137.121709,53.0685714 134.017637,53.0685714 C131.017034,53.0685714 129.516755,50.8925932 129.516755,46.5405714 C129.516755,45.3489464 129.620222,44.1573393 129.82716,42.9657143 C130.085833,41.6186599 130.551437,39.8830582 131.223986,37.7588571 C131.896535,35.634656 132.776009,33.3291553 133.862434,30.8422857 C134.948859,28.3554161 136.281003,26.2441992 137.858907,24.5085714 C139.43681,22.7729437 141.027623,21.9051429 142.631393,21.9051429 L143.174603,21.9051429 C143.174603,21.1798059 143.381538,20.5580978 143.795414,20.04 C144.209291,19.5219022 144.778362,19.2628571 145.502646,19.2628571 C146.226929,19.3146669 146.873601,20.8300803 147.442681,23.8091429 C148.011761,26.7882054 148.839501,28.3295233 149.925926,28.4331429 Z M145.968254,30.4537143 C145.502643,30.1946654 144.933572,29.2750555 144.261023,27.6948571 C143.588474,26.1146588 143.12287,25.3245714 142.864198,25.3245714 C141.260427,25.3245714 139.398012,27.6948334 137.276896,32.4354286 C135.15578,37.1760237 133.836569,40.9192244 133.319224,43.6651429 C133.112286,44.8567679 133.008818,45.944757 133.008818,46.9291429 C133.008818,49.4678222 133.733091,50.7371429 135.181658,50.7371429 C137.251039,50.7371429 139.566125,48.6259259 142.126984,44.4034286 C144.687843,40.1809313 145.968254,35.531073 145.968254,30.4537143 Z M190.045855,23.3817143 C183.785977,34.4690078 180.009413,43.4060613 178.716049,50.1931429 C178.560846,50.7112407 178.483245,51.2293307 178.483245,51.7474286 C178.483245,52.4727655 178.716047,52.8354286 179.181658,52.8354286 C179.388596,52.8354286 179.918867,52.5893358 180.772487,52.0971429 C181.626107,51.6049499 182.130511,51.3588571 182.285714,51.3588571 C182.544387,51.3588571 182.673721,51.5142842 182.673721,51.8251429 C182.673721,52.49867 182.10465,53.1980916 180.96649,53.9234286 C179.828331,54.6487655 178.690188,55.0114286 177.552028,55.0114286 C176.77601,55.0114286 176.206939,54.7653358 175.844797,54.2731429 C175.482655,53.7809499 175.301587,52.9390536 175.301587,51.7474286 C175.301587,50.5558036 175.560256,49.0533424 176.077601,47.24 C176.594947,45.4266576 177.112284,43.8853397 177.62963,42.616 C178.146975,41.3466603 178.884181,39.6499154 179.84127,37.5257143 C180.798359,35.4015132 181.354497,34.1321925 181.5097,33.7177143 C183.113471,29.9356001 183.915344,27.6819084 183.915344,26.9565714 C183.915344,26.5939029 183.78601,26.4125714 183.527337,26.4125714 C183.372133,26.4125714 183.087598,26.5420939 182.673721,26.8011429 C179.983526,28.6144853 177.138169,31.5416941 174.137566,35.5828571 C171.136963,39.6240202 168.912412,44.3386397 167.463845,49.7268571 C167.360376,50.1413354 166.817171,50.6205687 165.834215,51.1645714 C164.851259,51.7085741 164.023519,51.9805714 163.35097,51.9805714 C162.730156,51.9805714 162.419753,51.7474309 162.419753,51.2811429 L162.419753,51.1257143 L162.497354,50.9702857 C163.945921,44.1313944 166.377408,36.178712 169.791887,27.112 C170.05056,26.4384728 170.179894,25.9721918 170.179894,25.7131429 C170.179894,25.4540939 170.102294,25.3245714 169.94709,25.3245714 C169.688417,25.3245714 169.300414,25.609521 168.783069,26.1794286 C165.472059,30.0133525 162.549101,33.8213144 160.014109,37.6034286 C157.479117,41.3855427 155.707236,44.2609425 154.698413,46.2297143 C153.689589,48.198486 152.693714,49.8045652 151.710758,51.048 C150.727802,52.2914348 149.693127,52.9131429 148.606702,52.9131429 C148.192826,52.9131429 147.985891,52.7059068 147.985891,52.2914286 C147.985891,51.9287601 148.102292,51.462479 148.335097,50.8925714 C148.567902,50.3226638 148.826571,49.7527648 149.111111,49.1828571 L149.61552,48.1725714 C150.443273,46.1519899 152.150487,41.1006118 154.737213,33.0182857 C154.944152,32.3965683 155.047619,31.9302873 155.047619,31.6194286 C155.047619,31.4121894 155.008819,31.2179057 154.931217,31.0365714 C154.853615,30.8552372 154.814815,30.7127624 154.814815,30.6091429 C154.814815,30.4019037 154.892415,30.0651452 155.047619,29.5988571 C156.185779,26.3348408 157.194587,24.1588626 158.074074,23.0708571 C158.953561,21.9828517 160.221038,21.4388571 161.876543,21.4388571 C162.549092,21.4388571 162.937095,21.6719977 163.040564,22.1382857 C158.798333,30.8423292 156.263379,37.0594099 155.435626,40.7897143 C164.075293,27.008312 170.619613,20.1177143 175.068783,20.1177143 C176.103474,20.1177143 176.620811,20.4544728 176.620811,21.128 C176.620811,21.594288 176.439743,22.1123781 176.077601,22.6822857 C171.576697,30.2983238 168.73134,37.00759 167.541446,42.8102857 C170.076438,37.7847368 172.494991,33.8861091 174.797178,31.1142857 C177.099365,28.3424623 180.526726,25.2986832 185.079365,21.9828571 C186.062321,21.2057104 187.355665,20.8171429 188.959436,20.8171429 C189.994126,20.8171429 190.511464,21.1798059 190.511464,21.9051429 C190.511464,22.2678113 190.356263,22.7599969 190.045855,23.3817143 Z M205.798942,8.84914286 C205.798942,9.52267003 205.307471,10.3775186 204.324515,11.4137143 C203.341559,12.4499099 202.720754,13.2529495 202.462081,13.8228571 C201.789532,15.53258 201.06526,16.4910466 200.289242,16.6982857 C199.254551,16.6982857 198.737213,15.8434371 198.737213,14.1337143 C198.737213,13.0457088 199.539087,11.8541017 201.142857,10.5588571 C202.746628,9.26361257 204.143439,8.616 205.333333,8.616 C205.592006,8.616 205.747207,8.69371351 205.798942,8.84914286 Z M201.375661,22.1382857 C201.272192,22.2937151 200.922989,22.9413276 200.328042,24.0811429 C199.733095,25.2209581 199.228691,26.2053292 198.814815,27.0342857 C198.400939,27.8632422 197.831867,29.0807539 197.107584,30.6868571 C196.3833,32.2929604 195.736628,33.8213261 195.167549,35.272 C194.598469,36.7226739 194.00353,38.4582756 193.382716,40.4788571 C192.761902,42.4994387 192.218697,44.5199899 191.753086,46.5405714 C191.701352,46.6960008 191.675485,46.9032368 191.675485,47.1622857 C191.675485,47.7840031 191.934154,48.0948571 192.451499,48.0948571 C192.761906,48.0948571 193.60258,47.7062896 194.973545,46.9291429 C196.34451,46.1519961 197.236917,45.7634286 197.650794,45.7634286 C198.012935,45.7634286 198.21987,45.8670466 198.271605,46.0742857 C198.271605,46.6960031 196.952394,47.8487535 194.313933,49.5325714 C191.675472,51.2163894 189.86479,52.0582857 188.881834,52.0582857 C187.898878,52.0582857 187.407407,51.5920047 187.407407,50.6594286 C187.407407,50.1931405 187.510875,49.649146 187.717813,49.0274286 C188.286893,47.4213253 188.868898,45.7634371 189.463845,44.0537143 C190.058792,42.3439915 190.511462,41.0228618 190.821869,40.0902857 C191.132277,39.1577096 191.455613,38.199243 191.791887,37.2148571 C192.128162,36.2304713 192.373897,35.4921929 192.529101,35 C192.684304,34.5078071 192.826572,34.0156215 192.955908,33.5234286 C193.085245,33.0312356 193.175779,32.6556203 193.227513,32.3965714 C193.279248,32.1375225 193.305115,31.8784775 193.305115,31.6194286 C193.305115,31.4121894 193.266314,31.2179057 193.188713,31.0365714 C193.111111,30.8552372 193.07231,30.7127624 193.07231,30.6091429 C193.07231,30.4019037 193.149911,30.0651452 193.305115,29.5988571 C194.443274,26.3348408 195.452083,24.1588626 196.33157,23.0708571 C197.211057,21.9828517 198.504401,21.4388571 200.21164,21.4388571 C200.884189,21.4388571 201.272192,21.6719977 201.375661,22.1382857 Z M220,3.176 C215.085219,13.4861468 210.817184,24.9100325 207.195767,37.448 L214.723104,35.1165714 C214.930042,35.0647616 215.098177,35.0259049 215.227513,35 C215.35685,34.9740951 215.473251,34.9611429 215.57672,34.9611429 C215.680189,34.9611429 215.757789,34.9740951 215.809524,35 C215.861258,35.0259049 215.887125,35.0647616 215.887125,35.1165714 C215.887125,35.3756203 215.499122,35.7382834 214.723104,36.2045714 C213.119334,37.2925769 210.351578,38.587802 206.419753,40.0902857 C205.850673,42.2144868 205.307469,44.3645605 204.790123,46.5405714 C204.738389,46.7478106 204.712522,46.9550466 204.712522,47.1622857 C204.712522,47.3695248 204.738389,47.5379041 204.790123,47.6674286 C204.841858,47.796953 204.932392,47.900571 205.061728,47.9782857 C205.191065,48.0560004 205.333333,48.0948571 205.488536,48.0948571 C206.109351,48.0948571 207.014691,47.6803851 208.204586,46.8514286 C209.239276,46.0742818 210.041149,45.6857143 210.610229,45.6857143 C210.920636,45.6857143 211.153438,45.8152368 211.308642,46.0742857 C211.308642,46.3851444 211.03704,46.7607597 210.493827,47.2011429 C209.950615,47.641526 209.213409,48.1596161 208.282187,48.7554286 C207.350965,49.3512411 206.65256,49.8563789 206.186949,50.2708571 C204.738382,51.4624821 203.315704,52.0582857 201.918871,52.0582857 C200.935915,52.0582857 200.444444,51.5661002 200.444444,50.5817143 C200.444444,50.167236 200.547912,49.649146 200.75485,49.0274286 L203.470899,41.1782857 L199.202822,42.5771429 C198.788946,42.7325722 198.375076,42.8102857 197.961199,42.8102857 C196.926509,42.8102857 196.409171,42.4994317 196.409171,41.8777143 C196.409171,41.7222849 196.447971,41.5668579 196.525573,41.4114286 C196.603175,41.2559992 196.719576,41.0746677 196.87478,40.8674286 C197.34039,40.297521 199.849478,39.4426724 204.402116,38.3028571 C205.333338,35.3496995 206.626682,31.1661223 208.282187,25.752 C209.937692,20.3378777 211.127568,16.43925 211.851852,14.056 C211.903586,13.9005707 211.942387,13.7451436 211.968254,13.5897143 C211.994121,13.4342849 212.019988,13.3047624 212.045855,13.2011429 L212.123457,12.8902857 C212.149324,12.7866661 212.162257,12.7089526 212.162257,12.6571429 C212.162257,12.5017135 212.136391,12.3592387 212.084656,12.2297143 C212.032922,12.1001898 211.994121,11.9836196 211.968254,11.88 C211.942387,11.7763804 211.929453,11.6727624 211.929453,11.5691429 C211.929453,11.4655233 211.942387,11.3360008 211.968254,11.1805714 C211.994121,11.0251421 212.032922,10.8438106 212.084656,10.6365714 C212.343329,9.85942469 212.614931,9.09524185 212.899471,8.344 C213.184011,7.59275815 213.44268,6.93219333 213.675485,6.36228571 C213.90829,5.7923781 214.050558,5.42971506 214.102293,5.27428571 C214.205762,5.0152368 214.373897,4.75619177 214.606702,4.49714286 C214.839507,4.23809394 215.085243,4.01790567 215.343915,3.83657143 C215.602588,3.65523719 215.887124,3.47390567 216.197531,3.29257143 C216.507938,3.11123719 216.818341,2.96876242 217.128748,2.86514286 C217.439155,2.76152329 217.736624,2.67085753 218.021164,2.59314286 C218.305704,2.51542818 218.577306,2.47657143 218.835979,2.47657143 C219.146386,2.47657143 219.405055,2.54133269 219.611993,2.67085714 C219.818931,2.8003816 219.948265,2.96876087 220,3.176 Z" id="path-1"></path>
        <filter x="-0.5%" y="-1.5%" width="100.9%" height="102.9%" filterUnits="objectBoundingBox" id="filter-2">
            <feGaussianBlur stdDeviation="0.5" in="SourceAlpha" result="shadowBlurInner1"></feGaussianBlur>
            <feOffset dx="1" dy="1" in="shadowBlurInner1" result="shadowOffsetInner1"></feOffset>
            <feComposite in="shadowOffsetInner1" in2="SourceAlpha" operator="arithmetic" k2="-1" k3="1" result="shadowInnerInner1"></feComposite>
            <feColorMatrix values="0 0 0 0 0   0 0 0 0 0   0 0 0 0 0  0 0 0 0.5 0" type="matrix" in="shadowInnerInner1"></feColorMatrix>
        </filter>
    </defs>
    <g id="Page-1" stroke="none" stroke-width="1" fill="none" fill-rule="evenodd">
        <g id="Artboard-2">
            <g id="Mikromił">
                <use fill="#455479" fill-rule="evenodd" xlink:href="#path-1"></use>
                <use fill="black" fill-opacity="1" filter="url(#filter-2)" xlink:href="#path-1"></use>
            </g>
        </g>
    </g>
</svg>