<?xml version="1.0" encoding="UTF-8"?>
<svg width="358px" height="230px" viewBox="0 0 358 230" version="1.1" xmlns="http://www.w3.org/2000/svg" xmlns:xlink="http://www.w3.org/1999/xlink">
    <!-- Generator: Sketch 48.2 (47327) - http://www.bohemiancoding.com/sketch -->
    <title>Mikromił</title>
    <desc>Created with Sketch.</desc>
    <defs></defs>
    <g id="Page-1" stroke="none" stroke-width="1" fill="none" fill-rule="evenodd">
        <g id="Mikromił" transform="translate(-14.000000, -74.000000)">
            <path d="M143.521595,236 L138.20598,285.333333" id="Path-9" stroke="#000000" stroke-width="4" stroke-linecap="round"></path>
            <path d="M134.219269,234.666667 L126.245847,281.333333" id="Path-8" stroke="#000000" stroke-width="4" stroke-linecap="round"></path>
            <path d="M370.76412,302.666667 C373.421927,296 326.910299,232 318.936877,218.666667 C310.963455,205.333333 316.27907,189.333333 304.318937,182.666667 C292.358804,176 281.727575,180 277.740864,180 C275.695773,177.948092 281.254045,150.919875 287.043189,129.333333 C292.539432,108.838961 296.345515,97.3333333 296.345515,88 C293.687708,76 252.491694,73.3333333 244.518272,76 C239.202658,78.6666667 244.518272,164 237.873754,161.333333 C231.229236,156 204.651163,84 198.006645,82.6666667 C194.019934,82.6666667 167.44186,98.6666667 163.45515,105.333333 C162.126246,112 199.335548,168 195.348837,172 C191.362126,176 136.877076,162.666667 123.58804,166.666667 C110.299003,170.666667 102.325581,178.666667 102.325581,190.666667 C66.4451827,214.666667 29.2358804,233.333333 15.9468439,242.666667 C11.9601329,254.666667 45.1827243,289.333333 55.8139535,290.666667 C73.089701,284 111.627907,240 119.601329,236 C179.401993,257.333333 221.92691,249.333333 255.149502,226.666667 C259.627201,223.611682 271.096346,226.666667 281.727575,228 C292.358804,229.333333 308.622585,227.905162 312.292359,230.666667 C333.554817,246.666667 364.119601,301.333333 370.76412,302.666667 Z" id="Path-2" stroke-opacity="0.988111413" stroke="#000000" stroke-width="1.33333333" fill="#000000"></path>
            <polygon id="Path-4" fill="#FFFFFF" points="111.627907 229.333333 113.621262 228 116.943522 232 113.621262 234.666667"></polygon>
            <polygon id="Path-4" fill="#FFFFFF" transform="translate(108.509743, 222.835638) rotate(6.000000) translate(-108.509743, -222.835638) " points="105.187484 221.502305 108.509743 218.835638 111.832002 224.168971 108.509743 226.835638"></polygon>
            <polygon id="Path-4" fill="#FFFFFF" points="100.996678 212 104.318937 209.333333 106.312292 216 104.318937 217.333333"></polygon>
            <polygon id="Path-4" fill="#FFFFFF" points="97.0099668 238.666667 100.996678 236 103.654485 241.333333 100.332226 244"></polygon>
            <polygon id="Path-4" fill="#FFFFFF" points="79.7342193 254.666667 83.7209302 252 86.3787375 257.333333 83.0564784 260"></polygon>
            <polygon id="Path-4" fill="#FFFFFF" points="74.4186047 229.333333 78.4053156 226.666667 81.0631229 232 77.7408638 234.666667"></polygon>
            <polygon id="Path-6" fill="#FFFFFF" transform="translate(101.266178, 225.770365) rotate(7.000000) translate(-101.266178, -225.770365) " points="101.624178 221.767948 105.06455 226.205462 102.072611 229.772782 97.4678057 224.96668"></polygon>
            <polygon id="Path-6" fill="#FFFFFF" transform="translate(76.254821, 247.132996) rotate(7.000000) translate(-76.254821, -247.132996) " points="76.3732224 243.130578 80.2927922 246.677751 76.8216555 251.135413 72.2168504 246.329311"></polygon>
            <polygon id="Path-6" fill="#FFFFFF" transform="translate(79.399277, 214.259201) rotate(3.000000) translate(-79.399277, -214.259201) " points="78.7772024 210.256784 84.1777231 214.964859 79.2256355 218.261618 74.6208304 213.455516"></polygon>
            <polygon id="Path-6" fill="#FFFFFF" transform="translate(69.016355, 236.556871) rotate(7.000000) translate(-69.016355, -236.556871) " points="68.3942811 232.554454 73.7948017 237.262529 68.8427141 240.559288 64.2379091 235.753186"></polygon>
            <polygon id="Path-6" fill="#FFFFFF" transform="translate(95.144565, 218.090628) rotate(12.000000) translate(-95.144565, -218.090628) " points="95.2629659 214.088211 99.1825357 217.635383 95.711399 222.093045 91.1065939 217.286943"></polygon>
            <polygon id="Path-6" fill="#FFFFFF" transform="translate(72.145945, 221.113739) rotate(5.000000) translate(-72.145945, -221.113739) " points="72.1459454 216.447073 77.46156 221.780406 72.1459454 225.780406 66.8303308 221.113739"></polygon>
            <polygon id="Path-4" fill="#FFFFFF" points="87.7076412 246.666667 91.6943522 244 94.3521595 249.333333 91.0299003 252"></polygon>
            <polygon id="Path-4" fill="#FFFFFF" points="103.654485 233.333333 107.641196 230.666667 110.299003 236 106.976744 238.666667"></polygon>
            <polygon id="Path-4" fill="#FFFFFF" points="85.0498339 208 90.3654485 204 93.0232558 210.666667 88.372093 213.333333"></polygon>
            <polygon id="Path-4" fill="#FFFFFF" points="89.0365449 230.666667 93.0232558 228 95.6810631 233.333333 92.358804 236"></polygon>
            <polygon id="Path-4" fill="#FFFFFF" points="57.1428571 226.666667 61.1295681 224 63.7873754 229.333333 60.4651163 232"></polygon>
            <polygon id="Path-4" fill="#FFFFFF" transform="translate(98.550049, 203.195118) rotate(6.000000) translate(-98.550049, -203.195118) " points="94.4335299 202.61472 100.372587 197.10885 102.666569 206.251683 98.4202409 209.281386"></polygon>
            <polygon id="Path-4" fill="#FFFFFF" transform="translate(84.385382, 240.000000) rotate(-3.000000) translate(-84.385382, -240.000000) " points="79.7342193 238.666667 83.7209302 234.666667 89.0365449 241.333333 83.7209302 245.333333"></polygon>
            <polygon id="Path-4" fill="#FFFFFF" transform="translate(85.894247, 222.748195) rotate(-2.000000) translate(-85.894247, -222.748195) " points="81.243084 221.492996 86.0853111 217.336727 90.5454096 224.159663 85.229795 228.159663"></polygon>
            <polygon id="Path-6" fill="#FFFFFF" points="73.089701 261.333333 78.4053156 266.666667 73.089701 270.666667 67.7740864 266"></polygon>
            <polygon id="Path-4" fill="#FFFFFF" points="62.4584718 254.666667 66.4451827 252 69.10299 257.333333 65.7807309 260"></polygon>
            <polygon id="Path-4" fill="#FFFFFF" points="53.1561462 245.333333 58.4717608 241.333333 63.7873754 248 58.4717608 252"></polygon>
            <polygon id="Path-4" fill="#FFFFFF" points="43.8538206 234.666667 50.4983389 230.666667 54.4850498 237.333333 49.1694352 241.333333"></polygon>
            <rect id="Rectangle" x="0" y="0" width="398.675076" height="400"></rect>
            <path d="M280.398671,189.333333 C284.578849,184.493973 292.613758,182.280287 299.003322,186.666667 C305.392886,191.053046 307.011739,203.344103 302.990033,208 C298.968328,212.655897 291.152569,213.978948 284.385382,209.333333 C277.618195,204.687719 276.218493,194.172693 280.398671,189.333333 Z" id="Path-3" stroke="#FFFFFF" stroke-width="1.33333333" fill="#FFFFFF"></path>
            <ellipse id="Oval" fill="#000000" cx="295.681063" cy="194" rx="4.65116279" ry="4.66666667"></ellipse>
            <polygon id="Path-4" fill="#FFFFFF" points="21.2624585 245.333333 27.9069767 242.666667 33.2225914 252 27.2425249 256"></polygon>
            <polygon id="Path-5" fill="#FFFFFF" points="36.5448505 253.333333 42.5249169 261.333333 37.2093023 266.666667 29.2358804 258.666667"></polygon>
            <polygon id="Path-6" fill="#FFFFFF" points="45.1827243 264 51.8272425 272 46.5116279 276 39.8671096 269.333333"></polygon>
            <polygon id="Path-7" fill="#FFFFFF" points="54.4850498 274.666667 61.1295681 281.333333 55.1495017 285.333333 49.1694352 279.333333"></polygon>
            <path d="M115.614618,268 L150.166113,277.333333" id="Path-10" stroke="#000000" stroke-width="4" stroke-linecap="round"></path>
        </g>
    </g>
</svg>