<?xml version="1.0" encoding="UTF-8"?>
<svg width="208px" height="60px" viewBox="0 0 208 60" version="1.1" xmlns="http://www.w3.org/2000/svg" xmlns:xlink="http://www.w3.org/1999/xlink">
    <!-- Generator: Sketch 48.2 (47327) - http://www.bohemiancoding.com/sketch -->
    <title>Artboard 3</title>
    <desc>Created with Sketch.</desc>
    <defs>
        <circle id="path-1" cx="120" cy="35" r="8"></circle>
        <filter x="-6.2%" y="-6.2%" width="112.5%" height="112.5%" filterUnits="objectBoundingBox" id="filter-2">
            <feGaussianBlur stdDeviation="0.5" in="SourceAlpha" result="shadowBlurInner1"></feGaussianBlur>
            <feOffset dx="1" dy="1" in="shadowBlurInner1" result="shadowOffsetInner1"></feOffset>
            <feComposite in="shadowOffsetInner1" in2="SourceAlpha" operator="arithmetic" k2="-1" k3="1" result="shadowInnerInner1"></feComposite>
            <feColorMatrix values="0 0 0 0 0   0 0 0 0 0   0 0 0 0 0  0 0 0 0.5 0" type="matrix" in="shadowInnerInner1"></feColorMatrix>
        </filter>
        <circle id="path-3" cx="138.5" cy="22.5" r="4.5"></circle>
        <filter x="-11.1%" y="-11.1%" width="122.2%" height="122.2%" filterUnits="objectBoundingBox" id="filter-4">
            <feGaussianBlur stdDeviation="0.5" in="SourceAlpha" result="shadowBlurInner1"></feGaussianBlur>
            <feOffset dx="1" dy="1" in="shadowBlurInner1" result="shadowOffsetInner1"></feOffset>
            <feComposite in="shadowOffsetInner1" in2="SourceAlpha" operator="arithmetic" k2="-1" k3="1" result="shadowInnerInner1"></feComposite>
            <feColorMatrix values="0 0 0 0 0   0 0 0 0 0   0 0 0 0 0  0 0 0 0.592504529 0" type="matrix" in="shadowInnerInner1"></feColorMatrix>
        </filter>
    </defs>
    <g id="Page-1" stroke="none" stroke-width="1" fill="none" fill-rule="evenodd">
        <g id="Artboard-3">
            <path d="M43.392,13.384 L44.832,13.384 L44.832,57.736 L43.68,57.736 L43.68,14.968 L24.384,42.328 L23.448,42.328 L4.152,14.968 L4.152,57.736 L3,57.736 L3,13.384 L4.44,13.384 L23.952,41.104 L43.392,13.384 Z M55.344,57.736 L54.192,57.736 L54.192,40.6 L55.344,40.6 L55.344,57.736 Z M55.776,34.84 C55.776,35.416 55.344,35.848 54.768,35.848 C54.192,35.848 53.76,35.416 53.76,34.84 C53.76,34.264 54.192,33.832 54.768,33.832 C55.344,33.832 55.776,34.264 55.776,34.84 Z M65.856,57.736 L64.704,57.736 L64.704,1 L65.856,1 L65.856,50.32 L76.368,40.6 L78.024,40.6 L68.736,48.952 L78.312,57.736 L76.584,57.736 L67.872,49.672 L65.856,51.544 L65.856,57.736 Z M86.304,57.736 L85.152,57.736 L85.152,40.6 L86.304,40.6 L86.304,43.336 C86.304,44.488 86.232,46 86.016,47.728 C86.808,42.904 89.328,40.312 93.648,40.168 L93.72,41.464 C88.032,41.464 86.304,46.72 86.304,51.184 L86.304,57.736 Z M162.196,46.144 C162.196,43.336 160.756,41.32 158.02,41.32 C154.42,41.32 151.036,46.72 147.58,58.24 L146.5,57.952 C146.932,56.368 147.076,53.992 147.076,51.184 L147.076,40.6 L148.228,40.6 L148.228,49.24 C148.228,51.688 148.084,53.272 147.868,54.712 C149.308,49.672 151.252,45.784 152.836,43.624 C154.492,41.32 156.22,40.168 158.308,40.168 C161.404,40.168 163.348,42.688 163.348,45.568 L163.348,49.24 C163.348,51.688 163.204,53.272 162.988,54.712 C164.428,49.672 166.372,45.784 167.956,43.624 C169.612,41.32 171.34,40.168 173.428,40.168 C176.524,40.168 178.468,42.688 178.468,45.568 L178.468,57.736 L177.316,57.736 L177.316,46.144 C177.316,43.336 175.876,41.32 173.14,41.32 C169.54,41.32 166.156,46.72 162.7,58.24 L161.62,57.952 C162.052,56.368 162.196,53.992 162.196,51.184 L162.196,46.144 Z M187.652,57.736 L186.5,57.736 L186.5,40.6 L187.652,40.6 L187.652,57.736 Z M191.868809,44.3488306 L191.292809,43.3511694 L204.283191,35.8511694 L204.859191,36.8488306 L191.868809,44.3488306 Z M188.016,34.84 C188.016,35.416 187.584,35.848 187.008,35.848 C186.432,35.848 186,35.416 186,34.84 C186,34.264 186.432,33.832 187.008,33.832 C187.584,33.832 188.016,34.264 188.016,34.84 Z M198.152,57.736 L197,57.736 L197,1 L198.152,1 L198.152,57.736 Z" id="MikrOmil" stroke="#455479" fill="#455479"></path>
            <path d="M120.036,12.808 C132.425241,12.808 142.536,22.9187595 142.536,35.308 C142.536,47.768443 132.425241,57.808 120.036,57.808 C107.575557,57.808 97.536,47.768443 97.536,35.308 C97.536,22.9187595 107.575557,12.808 120.036,12.808 Z" id="Path" stroke="#455479" stroke-width="2"></path>
            <g id="Oval">
                <use fill="#C13D1D" fill-rule="evenodd" xlink:href="#path-1"></use>
                <use fill="black" fill-opacity="1" filter="url(#filter-2)" xlink:href="#path-1"></use>
            </g>
            <g id="Oval-Copy">
                <use fill="#485B89" fill-rule="evenodd" xlink:href="#path-3"></use>
                <use fill="black" fill-opacity="1" filter="url(#filter-4)" xlink:href="#path-3"></use>
            </g>
        </g>
    </g>
</svg>